<svg width="215" height="51" xmlns="http://www.w3.org/2000/svg" xmlns:xlink="http://www.w3.org/1999/xlink"><defs><ellipse id="a" cx="25.545" cy="25.5" rx="25.545" ry="25.5"/><ellipse id="c" cx="25.545" cy="25.5" rx="25.545" ry="25.5"/><ellipse id="e" cx="25.545" cy="25.5" rx="25.545" ry="25.5"/></defs><g fill="none" fill-rule="evenodd"><path d="M191.951 38.25V12.59h4.295l14.369 20.082V12.59h3.975v25.66h-4.342l-14.37-20.081h-.079V38.25h-3.848zm-13.14 0V12.59h3.976v25.66h-3.975zm-25.224 0V12.59h3.959v22.106h13.986v3.554h-17.945zm-25.082-13.595h8.558c3.416 0 5.204-1.466 5.204-4.287 0-2.82-1.772-4.223-5.284-4.223h-8.478v8.51zm10.394 3.443l6.641 10.152h-4.55l-6.386-10.04h-6.099v10.04h-3.975V12.59h12.772c5.54 0 8.893 2.965 8.893 7.81.048 4.399-2.635 7.22-7.296 7.698zM97.739 38.25V12.59h18.808v3.555h-14.848v7.251h13.555v3.379h-13.555v7.969h14.848v3.506H97.74zM72.404 25.086h9.1c3.528 0 5.285-1.498 5.285-4.463 0-2.964-1.725-4.478-5.285-4.478h-9.1v8.94zM68.427 38.25V12.59h13.268c5.46 0 9.068 3.108 9.068 8.065 0 4.957-3.528 7.969-9.068 7.969h-9.292v9.562l-3.976.064z" fill="#060A24" fill-rule="nonzero"/><ellipse fill="#FFF" fill-rule="nonzero" cx="25.545" cy="25.5" rx="25.012" ry="24.969"/><mask id="b" fill="#fff"><use xlink:href="#a"/></mask><path d="M17.47 48.577C7.917 45.247 1.064 36.172 1.064 25.5c0-13.496 10.96-24.438 24.48-24.438 3.067 0 6.002.563 8.708 1.592 6.23 3.28 10.65 9.765 10.65 17.217 0 10.756-8.771 19.098-21.546 19.812-3.44.192-5.618 1.901-5.618 4.812 0 2.91 3.48 4.774 6.705 5.056a32.678 32.678 0 01-6.973-.974z" fill="#060A24" fill-rule="nonzero" mask="url(#b)"/><mask id="d" fill="#fff"><use xlink:href="#c"/></mask><path d="M42.84 19.227c0 9.993-6.663 16.783-18.939 18.281-3.717.454-6.693 1.405-7.73 4.758-.53 1.718-.495 3.98 1.167 5.7C8.154 44.62 1.597 35.825 1.597 25.5c0-13.159 10.65-23.835 23.815-23.906 10.343.278 17.427 8.259 17.427 17.633z" fill="#FFF" fill-rule="nonzero" mask="url(#d)"/><mask id="f" fill="#fff"><use xlink:href="#e"/></mask><path d="M25.545 51C11.437 51 0 39.583 0 25.5S11.437 0 25.545 0c14.107 0 25.544 11.417 25.544 25.5S39.652 51 25.545 51zm0-1.594c13.226 0 23.948-10.703 23.948-23.906S38.77 1.594 25.545 1.594C12.318 1.594 1.597 12.297 1.597 25.5s10.721 23.906 23.948 23.906z" fill="#060A24" fill-rule="nonzero" mask="url(#f)"/></g></svg>