<?xml version="1.0" encoding="UTF-8"?> <svg xmlns="http://www.w3.org/2000/svg" version="1.0" width="821px" height="309px" viewBox="0 0 8210 3090" preserveAspectRatio="xMidYMid meet"><g id="layer101" fill="#222222" stroke="none"><path d="M4315 3057 c-96 -32 -138 -91 -138 -192 0 -80 29 -136 91 -176 75 -47 133 -60 294 -66 l147 -6 7 -53 c8 -67 -10 -100 -60 -109 -50 -10 -101 18 -123 66 l-17 39 -112 0 c-62 0 -115 -3 -117 -7 -2 -5 3 -37 11 -72 13 -60 16 -64 57 -82 85 -38 175 -53 320 -53 160 -1 227 14 290 67 80 66 84 150 22 442 l-43 200 -131 3 -130 3 -13 -48 c-7 -26 -15 -51 -17 -55 -2 -4 -27 11 -56 32 -86 66 -202 93 -282 67z m301 -164 c11 -7 26 -23 32 -36 18 -34 41 -157 31 -163 -5 -3 -35 0 -66 6 -83 18 -123 60 -123 128 0 43 4 54 26 71 28 22 60 20 100 -6z"></path><path d="M5787 3056 c-55 -15 -85 -39 -103 -83 -22 -51 -17 -109 26 -310 22 -103 40 -191 40 -195 0 -5 -28 -8 -61 -8 l-61 0 7 -47 c4 -27 9 -51 11 -55 2 -4 30 -14 62 -23 89 -26 149 -64 217 -137 l63 -68 81 0 c94 0 90 -8 61 120 -11 47 -20 88 -20 93 0 4 27 7 60 7 66 0 66 -1 54 72 l-6 37 -67 3 -66 3 -37 170 c-48 221 -54 268 -36 282 7 6 33 14 56 18 44 7 44 7 37 42 -14 78 -16 79 -101 86 -108 10 -161 8 -217 -7z"></path><path d="M6477 3055 c-172 -35 -257 -147 -244 -325 11 -156 84 -268 216 -329 189 -87 492 -76 583 21 54 58 61 158 18 255 l-19 43 -223 0 c-161 0 -227 3 -236 12 -8 8 -12 45 -12 100 0 75 3 91 21 109 35 35 100 0 140 -76 l24 -45 132 0 c73 0 133 3 133 8 -1 22 -40 155 -49 166 -16 19 -132 54 -216 66 -93 13 -185 11 -268 -5z m297 -431 c3 -9 6 -44 6 -80 0 -57 -3 -65 -25 -80 -23 -15 -27 -15 -61 3 -38 18 -85 88 -99 146 l-7 27 90 0 c73 0 91 -3 96 -16z"></path><path d="M2855 3048 c-2 -7 -14 -159 -25 -338 -11 -179 -22 -343 -25 -365 -2 -22 -7 -94 -10 -160 -3 -66 -8 -132 -11 -147 l-6 -28 201 0 201 0 0 23 c2 96 29 669 32 672 2 2 62 -152 135 -343 l131 -347 161 -3 c160 -2 161 -2 165 20 3 13 13 171 23 352 10 199 21 323 26 315 5 -8 66 -165 137 -349 l128 -335 87 -3 c68 -2 86 0 82 10 -2 7 -91 238 -197 513 -106 275 -197 506 -203 513 -7 9 -57 12 -188 12 -179 0 -179 0 -179 -22 0 -13 -7 -131 -15 -263 -8 -132 -15 -253 -15 -269 0 -16 -3 -27 -6 -24 -3 3 -58 133 -123 289 l-118 284 -192 3 c-148 2 -192 0 -196 -10z"></path><path d="M5080 3055 c0 -4 190 -910 220 -1052 l12 -53 164 0 c119 0 164 3 164 12 0 12 -217 1051 -226 1081 -5 15 -22 17 -170 17 -90 0 -164 -2 -164 -5z"></path><path d="M7090 3048 c1 -7 34 -166 73 -353 l73 -340 129 -3 c91 -2 131 1 136 9 4 7 10 33 14 58 4 25 9 50 12 54 3 4 22 -12 44 -37 48 -54 105 -83 181 -92 57 -7 142 9 154 28 6 9 -55 318 -65 330 -3 4 -44 8 -91 9 l-85 2 -7 -67 c-3 -37 -14 -78 -22 -92 -21 -30 -57 -31 -89 -1 -21 19 -32 55 -72 247 -25 124 -49 233 -51 243 -5 15 -22 17 -170 17 -125 0 -164 -3 -164 -12z"></path><path d="M6496 2117 c-20 -35 -41 -79 -47 -98 -7 -19 -16 -39 -20 -45 -5 -6 -5 -14 -1 -19 4 -4 -3 -2 -15 4 -33 17 -69 4 -83 -29 -7 -16 -12 -32 -11 -34 0 -3 -6 -21 -14 -41 -9 -19 -15 -38 -14 -42 4 -22 -3 -31 -27 -37 -28 -7 -63 -42 -64 -63 0 -6 -4 -13 -9 -15 -13 -4 -89 -162 -111 -228 -31 -96 -1 -212 87 -336 l43 -62 -14 -68 c-36 -173 -10 -403 60 -536 10 -18 19 -35 19 -38 8 -31 87 -174 104 -190 3 -3 12 -17 20 -31 7 -15 29 -44 47 -65 19 -22 41 -50 48 -64 19 -34 69 -69 96 -67 13 1 39 22 63 51 23 27 47 54 52 60 19 21 55 75 55 81 0 4 11 21 25 39 34 45 111 197 140 279 49 134 66 298 44 422 -5 33 -12 72 -14 88 -2 15 -7 31 -10 36 -3 5 5 22 18 38 68 82 120 219 116 306 -3 51 -26 129 -41 135 -5 2 -8 9 -8 16 0 18 -58 124 -81 149 -10 11 -19 27 -19 34 0 8 -16 21 -35 29 -24 10 -36 22 -41 42 -24 110 -58 157 -109 150 -23 -3 -29 4 -53 57 -14 33 -38 80 -52 105 -24 40 -30 45 -67 48 -41 3 -42 3 -77 -61z"></path><path d="M3154 1786 c-199 -38 -301 -148 -311 -336 -20 -340 213 -539 632 -540 226 0 363 61 395 176 18 63 7 172 -24 239 l-25 55 -285 0 -284 0 -7 66 c-15 136 8 214 63 214 52 0 135 -78 156 -147 7 -23 10 -23 172 -23 153 0 165 1 160 18 -3 9 -14 58 -26 108 l-21 90 -46 23 c-119 57 -396 86 -549 57z m353 -523 c4 -10 7 -55 8 -101 0 -71 -3 -86 -19 -98 -57 -42 -129 2 -181 110 -52 109 -55 106 75 106 96 0 112 -2 117 -17z"></path><path d="M4100 1791 c-70 -23 -113 -58 -146 -121 -29 -54 -27 -276 4 -385 50 -174 126 -281 240 -337 62 -31 74 -33 168 -33 94 0 104 2 149 30 34 21 56 44 70 73 11 23 23 42 26 42 4 0 9 -15 12 -32 4 -18 32 -160 64 -316 l58 -282 204 0 203 0 -4 33 c-3 17 -33 165 -67 327 -35 162 -74 345 -86 405 -13 61 -45 214 -71 340 -26 127 -52 236 -57 243 -7 9 -48 12 -165 10 l-156 -3 -17 -58 c-10 -33 -20 -61 -23 -64 -3 -4 -27 14 -54 39 -63 59 -143 90 -247 94 -44 2 -91 0 -105 -5z m352 -199 c31 -20 68 -65 68 -81 0 -7 16 -86 36 -177 l37 -166 -31 -31 c-79 -79 -156 -7 -204 191 -25 104 -30 241 -9 265 18 22 69 21 103 -1z"></path><path d="M7565 1794 c-262 -41 -391 -206 -355 -453 29 -197 156 -336 365 -401 130 -40 418 -37 519 5 19 8 51 29 71 46 28 25 35 38 35 68 0 20 -4 41 -9 47 -4 5 -14 38 -21 74 -20 105 -12 100 -160 100 l-130 0 0 -93 c0 -111 -13 -137 -65 -137 -73 0 -140 95 -181 257 -63 249 -32 388 77 342 40 -16 93 -79 114 -137 10 -26 23 -50 29 -54 6 -4 66 -8 134 -8 104 0 124 2 129 16 6 15 -41 261 -52 272 -2 2 -46 15 -97 29 -72 19 -124 25 -233 28 -77 2 -153 1 -170 -1z"></path><path d="M5056 1782 c-5 -8 16 -113 115 -576 32 -153 59 -280 59 -282 0 -2 72 -4 160 -4 182 0 170 -6 185 94 4 25 11 49 16 51 4 3 29 -17 55 -45 64 -68 136 -102 230 -108 76 -5 155 10 173 32 7 8 -4 79 -32 217 l-43 204 -110 0 -109 0 -6 -83 c-7 -92 -28 -134 -70 -141 -29 -4 -87 26 -94 48 -2 9 -32 143 -65 299 -33 156 -62 287 -65 293 -7 11 -392 12 -399 1z"></path><path d="M3393 803 c2 -5 44 -74 92 -155 l88 -148 171 0 c168 0 170 0 151 19 -11 11 -91 80 -179 155 l-159 136 -84 0 c-46 0 -82 -3 -80 -7z"></path></g><g id="layer102" fill="#5c4a49" stroke="none"><path d="M6496 2117 c-20 -35 -41 -79 -47 -98 -7 -19 -16 -39 -20 -45 -5 -6 -5 -14 -1 -19 4 -4 -3 -2 -15 4 -33 17 -69 4 -83 -29 -7 -16 -12 -32 -11 -34 0 -3 -6 -21 -14 -41 -9 -19 -15 -38 -14 -42 4 -22 -3 -31 -27 -37 -28 -7 -63 -42 -64 -63 0 -6 -4 -13 -9 -15 -13 -4 -89 -162 -111 -228 -31 -96 -1 -212 87 -336 l43 -62 -14 -68 c-36 -173 -10 -403 60 -536 10 -18 19 -35 19 -38 8 -31 87 -174 104 -190 3 -3 12 -17 20 -31 7 -15 29 -44 47 -65 19 -22 41 -50 48 -64 19 -34 69 -69 96 -67 13 1 39 22 63 51 23 27 47 54 52 60 19 21 55 75 55 81 0 4 11 21 25 39 34 45 111 197 140 279 49 134 66 298 44 422 -5 33 -12 72 -14 88 -2 15 -7 31 -10 36 -3 5 5 22 18 38 68 82 120 219 116 306 -3 51 -26 129 -41 135 -5 2 -8 9 -8 16 0 18 -58 124 -81 149 -10 11 -19 27 -19 34 0 8 -16 21 -35 29 -24 10 -36 22 -41 42 -24 110 -58 157 -109 150 -23 -3 -29 4 -53 57 -14 33 -38 80 -52 105 -24 40 -30 45 -67 48 -41 3 -42 3 -77 -61z m114 -39 c16 -29 30 -57 30 -63 0 -5 -15 16 -32 48 -25 46 -34 55 -45 46 -11 -9 -12 -8 -7 5 10 27 22 19 54 -36z m-106 -92 c-6 -15 -24 -23 -24 -11 0 8 24 34 28 30 1 -1 0 -10 -4 -19z m278 -102 c28 -96 34 -128 35 -185 l1 -64 -8 65 c-7 64 -22 127 -41 179 -10 26 -10 25 -44 -29 -19 -30 -35 -47 -35 -37 0 9 5 17 10 17 6 0 10 5 10 10 0 17 44 80 54 77 6 -2 14 -17 18 -33z m-356 -25 c12 -25 18 -29 25 -18 6 10 9 4 9 -20 0 -19 -2 -32 -4 -30 -12 14 -57 99 -52 99 3 0 13 -14 22 -31z m-86 -171 c-1 -35 1 -71 5 -80 4 -10 5 -23 2 -30 -3 -7 -6 -3 -6 10 -1 12 -8 25 -16 28 -10 4 -15 18 -14 43 l2 36 7 -35 c6 -30 8 -26 9 28 0 34 4 62 7 62 3 0 5 -28 4 -62z m482 -70 c-5 -7 -12 -22 -15 -33 -4 -16 -5 -14 -6 7 -1 22 7 33 28 37 2 1 -1 -5 -7 -11z m-327 -55 c-4 -21 -11 -67 -15 -103 -7 -61 -7 -62 -9 -17 -1 46 -2 47 -32 47 -59 0 -71 -17 -93 -135 -11 -57 -59 -235 -62 -232 -3 2 10 61 27 131 33 136 38 176 26 216 -4 14 -4 19 -1 13 13 -29 26 -11 22 30 -5 36 -4 38 5 16 9 -24 14 -26 51 -22 62 7 63 8 71 52 4 23 9 41 12 41 3 0 2 -17 -2 -37z m-168 -20 c-3 -10 -5 -2 -5 17 0 19 2 27 5 18 2 -10 2 -26 0 -35z m433 -43 c9 -6 17 -5 23 3 6 8 7 7 4 -4 -3 -9 1 -25 8 -36 9 -12 10 -24 4 -34 -7 -11 -9 -9 -9 9 0 34 -34 62 -76 62 -34 0 -35 -1 -31 -32 2 -18 1 -42 -4 -53 -5 -13 -8 -1 -8 38 l-1 57 38 0 c20 0 44 -4 52 -10z m-591 -246 c36 -77 90 -156 102 -148 5 3 9 -2 9 -10 0 -28 -14 -17 -55 42 -74 106 -106 190 -104 269 1 28 4 22 10 -25 4 -35 22 -93 38 -128z m489 98 c-7 -18 -16 -32 -20 -32 -4 0 0 16 9 35 20 42 27 41 11 -3z m180 -92 c0 -9 -3 -7 -8 5 -5 11 -8 29 -8 40 0 16 2 15 8 -5 4 -14 8 -32 8 -40z m-220 26 c-6 -14 -17 -27 -24 -30 -9 -3 -5 7 8 24 26 36 31 38 16 6z m271 -182 c4 3 6 -6 3 -20 -5 -29 -10 -27 -18 7 -12 49 -14 73 -4 41 6 -18 14 -30 19 -28z m-239 24 c33 -9 109 -61 115 -79 4 -10 10 -19 15 -19 4 0 11 -10 15 -22 4 -13 9 -30 12 -38 3 -8 5 -43 6 -77 1 -136 -110 -238 -253 -232 -28 2 -53 6 -56 11 -3 4 -12 8 -20 8 -23 0 -114 90 -130 129 -17 40 -18 120 -3 172 15 48 73 109 130 136 41 20 117 25 169 11z m-408 -331 c2 -37 0 -67 -4 -67 -5 0 -7 44 -6 98 1 100 5 88 10 -31z m685 -4 c-2 -16 -4 -3 -4 27 0 30 2 43 4 28 2 -16 2 -40 0 -55z m-37 -206 c-26 -84 -87 -225 -108 -247 -8 -8 2 18 22 57 20 40 36 77 36 82 0 6 -12 18 -27 26 -16 9 -19 13 -8 10 31 -11 49 -11 51 0 0 6 6 24 13 40 7 17 18 52 24 79 6 27 13 44 15 37 2 -6 -6 -44 -18 -84z m-606 -22 c4 -19 3 -25 -3 -15 -4 8 -11 29 -15 45 -4 19 -3 25 3 15 4 -8 11 -28 15 -45z m286 -15 c-101 -7 -191 -31 -234 -63 -16 -11 -17 -17 -6 -36 6 -13 10 -25 7 -27 -4 -4 -23 36 -45 96 -3 8 4 4 16 -10 12 -14 21 -19 22 -12 0 6 6 12 13 12 6 0 25 7 41 15 16 8 43 18 60 21 16 3 32 7 34 8 1 2 46 3 100 3 l97 1 -105 -8z m207 -23 c4 -7 0 -8 -11 -4 -10 4 -22 7 -27 7 -5 0 -9 4 -9 9 0 12 38 2 47 -12z m-336 -282 c7 -13 3 -12 -10 5 -11 14 -21 30 -21 35 0 11 14 -7 31 -40z"></path><path d="M6493 1061 c-75 -35 -119 -136 -93 -215 24 -75 103 -135 177 -136 142 -1 236 174 154 287 -59 81 -147 105 -238 64z"></path></g><g id="layer103" fill="#d61a33" stroke="none"><path d="M6551 1787 c-16 -42 -71 -304 -71 -340 0 -38 49 -144 80 -172 19 -17 20 -17 39 6 11 13 32 49 47 78 33 67 30 111 -19 311 -25 104 -36 136 -50 138 -11 2 -20 -5 -26 -21z"></path><path d="M6263 1693 c-39 -55 -101 -179 -119 -235 -20 -66 -12 -124 30 -213 31 -66 86 -139 96 -129 4 5 22 74 40 152 31 134 32 148 21 210 -6 37 -16 102 -20 146 -11 94 -21 108 -48 69z"></path><path d="M6845 1708 c-2 -7 -6 -47 -10 -88 -3 -41 -11 -107 -17 -146 -11 -66 -9 -78 22 -205 18 -74 36 -140 40 -147 20 -39 127 159 137 252 7 69 -8 114 -85 249 -52 90 -77 115 -87 85z"></path><path d="M6474 536 c-49 -11 -134 -46 -152 -61 -13 -12 162 -297 233 -380 l26 -30 30 35 c83 96 240 373 222 391 -5 5 -35 18 -68 29 -78 27 -210 34 -291 16z"></path></g><g id="layer104" fill="#ff1616" stroke="none"><path d="M10 1760 l0 -1330 1325 0 1325 0 0 1330 0 1330 -1325 0 -1325 0 0 -1330z"></path></g><g id="layer105" fill="#ef202b" stroke="none"><path d="M6528 2163 c-26 -31 -98 -178 -98 -202 0 -7 -7 -7 -25 1 -49 22 -82 -24 -110 -154 -3 -16 -11 -28 -19 -28 -19 0 -63 -36 -78 -64 -50 -91 -102 -198 -115 -236 -32 -94 6 -238 98 -368 l31 -42 -16 -70 c-32 -140 -13 -352 43 -485 4 -11 18 -41 30 -66 11 -25 21 -49 21 -52 0 -9 83 -151 97 -165 7 -7 13 -17 13 -21 0 -12 92 -131 131 -169 59 -57 97 -30 227 163 149 222 218 414 216 610 0 97 -2 116 -22 218 -9 43 -7 51 13 75 30 36 82 138 100 199 28 93 20 141 -46 278 -54 111 -109 189 -136 193 -15 2 -25 12 -29 30 -28 121 -59 167 -105 157 -28 -6 -30 -4 -69 82 -23 48 -50 98 -62 110 -26 27 -69 30 -90 6z m100 -120 c22 -49 46 -108 52 -133 7 -25 14 -52 17 -60 3 -10 12 -2 29 25 13 22 29 40 36 40 19 0 56 -140 59 -220 1 -38 4 -56 6 -40 7 61 13 75 32 75 23 0 45 -25 35 -41 -4 -7 -3 -9 4 -5 14 8 36 -30 26 -46 -4 -7 -3 -8 4 -4 14 8 46 -50 36 -66 -5 -7 -3 -8 6 -3 10 6 12 4 7 -9 -5 -11 -3 -15 5 -10 8 5 9 2 5 -10 -4 -9 -3 -14 2 -11 12 7 24 -31 15 -46 -4 -7 -3 -9 3 -6 13 8 23 -25 23 -78 0 -49 -10 -86 -20 -80 -5 3 -6 -5 -2 -17 3 -14 1 -19 -6 -14 -8 4 -10 2 -6 -8 7 -18 -24 -79 -36 -71 -6 3 -7 0 -4 -8 2 -7 -5 -25 -16 -38 -12 -13 -18 -18 -14 -10 5 9 3 12 -5 7 -6 -4 -9 -12 -5 -17 3 -6 -1 -18 -10 -28 -16 -17 -15 -26 5 -122 27 -133 22 -263 -16 -394 -29 -99 -125 -301 -142 -298 -6 1 -10 -5 -9 -15 0 -9 -5 -16 -12 -14 -8 1 -11 -2 -7 -7 5 -9 -41 -91 -52 -91 -2 0 -1 6 3 13 4 7 3 8 -2 4 -5 -5 -9 -16 -9 -25 0 -9 -7 -17 -15 -17 -8 0 -14 -7 -12 -16 1 -8 -12 -28 -29 -45 l-31 -29 -34 40 c-106 124 -230 344 -279 495 -37 115 -45 271 -20 405 17 90 17 96 1 114 -17 18 -16 22 5 68 25 53 25 56 14 263 -7 137 -2 204 21 265 7 19 7 19 -9 3 -9 -9 -17 -21 -17 -27 0 -6 -5 -11 -11 -11 -5 0 -7 -4 -4 -10 3 -5 1 -10 -5 -10 -6 0 -9 -4 -6 -8 3 -5 -3 -18 -14 -29 -10 -12 -16 -24 -13 -27 4 -3 1 -6 -6 -6 -7 0 -9 -4 -6 -10 3 -5 1 -10 -5 -10 -6 0 -8 -4 -5 -10 3 -5 1 -10 -5 -10 -6 0 -8 -4 -5 -10 3 -5 1 -10 -5 -10 -6 0 -9 -4 -5 -9 3 -5 1 -12 -4 -15 -20 -13 -29 -111 -16 -171 7 -34 42 -117 53 -125 12 -9 34 -52 29 -57 -7 -7 -45 51 -75 114 -22 47 -27 73 -27 135 0 74 2 81 59 192 32 64 67 123 78 133 28 25 52 6 59 -48 6 -41 6 -39 8 21 1 60 29 192 45 219 10 16 24 13 30 -6 4 -10 15 -29 25 -42 l18 -24 16 69 c18 76 91 224 111 224 7 0 31 -39 54 -87z"></path><path d="M6555 1790 c-14 -38 -17 -53 -16 -77 0 -13 -3 -23 -8 -23 -5 0 -8 -11 -6 -25 1 -14 -1 -25 -5 -25 -4 0 -7 -6 -8 -12 0 -7 -4 -26 -7 -43 -4 -16 -8 -39 -9 -51 -2 -11 -6 -26 -10 -32 -4 -7 -3 -12 2 -12 5 0 6 -17 2 -40 -6 -30 -2 -49 14 -82 12 -24 24 -44 29 -46 4 -2 7 -9 7 -15 0 -7 12 -21 27 -31 14 -11 23 -15 20 -9 -4 6 -2 35 3 64 8 39 6 108 -5 254 -18 237 -19 237 -30 205z m12 -222 c-2 -13 -4 -5 -4 17 -1 22 1 32 4 23 2 -10 2 -28 0 -40z"></path><path d="M6850 1720 c-1 -3 -4 -25 -6 -50 -4 -51 -13 -144 -17 -177 -1 -12 -6 -25 -10 -29 -5 -5 -6 27 -3 71 l6 80 -16 -69 c-13 -57 -13 -71 -2 -85 8 -9 13 -33 12 -53 0 -21 3 -38 8 -38 5 0 8 -8 6 -17 -2 -10 0 -22 4 -28 5 -5 16 -21 26 -34 24 -32 48 -23 68 26 21 50 12 127 -31 258 -18 56 -35 113 -38 126 -2 13 -5 22 -7 19z"></path><path d="M6528 545 c-3 -3 -18 -8 -34 -10 -34 -5 -68 -13 -71 -15 -2 -2 -6 -3 -10 -4 -22 -4 -73 -32 -73 -39 0 -5 -4 -5 -10 -2 -5 3 -10 4 -10 2 0 -10 65 -133 77 -145 7 -7 13 -20 13 -28 0 -8 3 -14 8 -14 4 0 13 -13 20 -28 6 -16 21 -38 32 -50 11 -12 20 -25 20 -31 0 -5 7 -11 15 -15 8 -3 15 -11 15 -18 0 -8 8 -21 18 -29 9 -9 22 -25 29 -35 11 -18 12 -18 35 5 12 14 15 19 6 12 -15 -11 -15 -8 2 36 67 178 61 364 -12 390 -20 6 -16 9 22 14 42 6 41 6 -21 7 -36 1 -68 0 -71 -3z"></path></g><g id="layer106" fill="#c4454e" stroke="none"><path d="M693 3083 c357 -2 937 -2 1290 0 353 1 62 2 -648 2 -710 0 -998 -1 -642 -2z"></path><path d="M6528 2163 c-26 -31 -98 -178 -98 -202 0 -7 -7 -7 -25 1 -49 22 -82 -24 -110 -154 -3 -16 -11 -28 -19 -28 -19 0 -63 -36 -78 -64 -50 -91 -102 -198 -115 -236 -32 -94 6 -238 98 -368 l31 -42 -16 -70 c-32 -140 -13 -352 43 -485 4 -11 18 -41 30 -66 11 -25 21 -49 21 -52 0 -9 83 -151 97 -165 7 -7 13 -17 13 -21 0 -12 92 -131 131 -169 59 -57 97 -30 227 163 149 222 218 414 216 610 0 97 -2 116 -22 218 -9 43 -7 51 13 75 30 36 82 138 100 199 28 93 20 141 -46 278 -54 111 -109 189 -136 193 -15 2 -25 12 -29 30 -28 121 -59 167 -105 157 -28 -6 -30 -4 -69 82 -23 48 -50 98 -62 110 -26 27 -69 30 -90 6z m100 -120 c22 -49 46 -108 52 -133 7 -25 14 -52 17 -60 3 -10 12 -2 29 25 13 22 29 40 36 40 19 0 56 -140 59 -220 1 -38 4 -56 6 -40 7 61 13 75 32 75 23 0 45 -25 35 -41 -4 -7 -3 -9 4 -5 14 8 36 -30 26 -46 -4 -7 -3 -8 4 -4 14 8 46 -50 36 -66 -5 -7 -3 -8 6 -3 10 6 12 4 7 -9 -5 -11 -3 -15 5 -10 8 5 9 2 5 -10 -4 -9 -3 -14 2 -11 12 7 24 -31 15 -46 -4 -7 -3 -9 3 -6 13 8 23 -25 23 -78 0 -49 -10 -86 -20 -80 -5 3 -6 -5 -2 -17 3 -14 1 -19 -6 -14 -8 4 -10 2 -6 -8 7 -18 -24 -79 -36 -71 -6 3 -7 0 -4 -8 2 -7 -5 -25 -16 -38 -12 -13 -18 -18 -14 -10 5 9 3 12 -5 7 -6 -4 -9 -12 -5 -17 3 -6 -1 -18 -10 -28 -16 -17 -15 -26 5 -122 27 -133 22 -263 -16 -394 -29 -99 -125 -301 -142 -298 -6 1 -10 -5 -9 -15 0 -9 -5 -16 -12 -14 -8 1 -11 -2 -7 -7 5 -9 -41 -91 -52 -91 -2 0 -1 6 3 13 4 7 3 8 -2 4 -5 -5 -9 -16 -9 -25 0 -9 -7 -17 -15 -17 -8 0 -14 -7 -12 -16 3 -19 -53 -73 -66 -65 -21 13 -102 128 -96 137 3 5 0 8 -8 7 -7 -2 -12 5 -12 14 1 10 -3 16 -10 15 -6 -1 -10 6 -10 15 1 10 -3 16 -10 15 -6 -1 -10 6 -9 16 0 10 -2 16 -5 13 -9 -10 -34 33 -26 46 4 6 3 8 -3 5 -12 -8 -56 81 -47 95 4 6 3 8 -3 5 -12 -8 -40 53 -73 158 -32 100 -38 265 -15 390 17 91 17 96 1 114 -10 11 -15 25 -11 31 3 6 1 9 -6 8 -17 -4 -76 96 -95 161 -27 89 -16 146 51 277 32 62 66 121 77 131 28 25 52 6 59 -48 6 -41 6 -39 8 21 1 60 29 192 45 219 10 16 24 13 30 -6 4 -10 15 -29 25 -42 l18 -24 16 69 c18 76 91 224 111 224 7 0 31 -39 54 -87z"></path><path d="M6545 1736 c-6 -6 -9 -19 -7 -28 2 -10 -1 -18 -6 -18 -5 0 -7 -11 -4 -25 2 -14 0 -25 -6 -25 -6 0 -8 -9 -5 -20 3 -11 1 -20 -4 -20 -6 0 -8 -11 -5 -25 2 -14 0 -25 -4 -25 -5 0 -9 -30 -8 -68 0 -69 18 -127 47 -150 14 -12 17 -10 23 12 10 43 -9 406 -21 392z"></path><path d="M6802 1543 c-10 -54 -10 -69 0 -79 11 -11 14 2 16 67 2 43 2 79 0 79 -2 0 -9 -30 -16 -67z"></path><path d="M6388 1480 c-10 -6 -21 -34 -28 -68 -7 -31 -34 -147 -62 -257 -55 -223 -67 -333 -49 -441 12 -70 48 -193 60 -207 4 -4 36 5 72 20 59 25 75 28 199 28 107 0 145 -4 183 -18 26 -10 45 -23 42 -28 -4 -5 2 -6 11 -2 12 4 15 3 10 -5 -4 -8 -2 -10 7 -6 21 8 63 143 78 245 14 102 4 187 -42 361 -16 62 -43 168 -59 236 -16 68 -34 130 -41 138 -6 8 -28 14 -49 14 l-37 0 0 -44 c0 -47 -34 -129 -77 -181 l-24 -30 -25 23 c-43 41 -87 134 -87 186 0 45 0 46 -32 46 -18 0 -41 -5 -50 -10z m287 -359 c22 -10 55 -33 73 -51 54 -53 67 -87 67 -171 0 -67 -3 -81 -30 -125 -84 -136 -282 -154 -386 -36 -44 49 -59 91 -59 160 0 102 46 177 135 218 62 29 143 31 200 5z"></path><path d="M6557 543 c18 -2 50 -2 70 0 21 2 7 4 -32 4 -38 0 -55 -2 -38 -4z"></path><path d="M6600 95 c-7 -9 -20 -13 -29 -10 -13 5 -14 4 -3 -7 10 -10 16 -8 34 10 12 12 20 22 16 22 -3 0 -11 -7 -18 -15z"></path></g><g id="layer107" fill="#ef2b4e" stroke="none"><path d="M6548 1735 c-11 -32 -37 -148 -48 -221 -9 -55 -8 -75 5 -114 9 -26 24 -55 35 -65 18 -17 19 -16 26 9 8 35 -9 417 -18 391z"></path><path d="M6845 1553 c-13 -145 -12 -176 9 -207 28 -44 41 -19 39 74 -1 64 -28 230 -38 230 -1 0 -6 -44 -10 -97z"></path><path d="M6211 1565 c-41 -91 -52 -151 -40 -224 5 -36 19 -86 30 -111 l20 -45 13 31 c14 33 27 172 14 151 -5 -8 -8 -4 -8 11 0 13 4 20 10 17 6 -3 10 3 10 14 0 12 -6 21 -12 21 -9 0 -12 16 -10 58 2 32 2 73 0 92 l-4 35 -23 -50z"></path><path d="M6468 500 c-41 -7 -86 -34 -95 -56 -3 -8 0 -27 6 -42 19 -45 175 -275 190 -280 12 -4 13 16 8 119 -10 206 -37 272 -109 259z"></path></g><g id="layer108" fill="#f4a72a" stroke="none"><path d="M6533 2043 c-42 -93 -62 -159 -65 -215 -2 -27 -5 -48 -8 -48 -3 0 -19 25 -35 55 -17 30 -33 55 -36 55 -4 0 -15 -28 -25 -62 -22 -74 -24 -198 -5 -274 l12 -51 47 5 c26 2 49 6 51 9 3 2 20 67 38 145 18 78 40 149 48 157 31 31 48 1 86 -152 19 -81 37 -148 40 -151 2 -2 25 -6 51 -8 l47 -5 11 51 c16 79 14 191 -6 267 -10 38 -21 69 -25 69 -4 0 -21 -24 -38 -52 -17 -29 -31 -48 -31 -43 -3 73 -93 315 -118 315 -5 0 -23 -30 -39 -67z"></path></g><g id="layer109" fill="#a1dcd5" stroke="none"><path d="M6509 1116 c-80 -28 -139 -97 -154 -178 -11 -59 11 -131 56 -182 130 -147 373 -70 387 124 5 75 -11 123 -61 177 -59 64 -149 88 -228 59z m167 -33 c110 -56 138 -217 56 -315 -72 -85 -211 -90 -295 -10 -43 40 -60 81 -61 142 -1 157 160 256 300 183z"></path><path d="M6505 1066 c-42 -18 -92 -78 -105 -125 -34 -127 94 -255 221 -221 48 13 107 63 125 107 27 64 7 162 -42 205 -51 45 -140 60 -199 34z"></path></g><g id="layer110" fill="#cfe5ef" stroke="none"><path d="M6528 2163 c-26 -31 -98 -178 -98 -202 0 -7 -7 -7 -25 1 -49 22 -82 -24 -110 -154 -3 -16 -11 -28 -19 -28 -19 0 -63 -36 -78 -64 -50 -91 -102 -198 -115 -236 -32 -94 6 -238 98 -368 l31 -42 -16 -70 c-32 -140 -13 -352 43 -485 4 -11 18 -41 30 -66 11 -25 21 -49 21 -52 0 -9 83 -151 97 -165 7 -7 13 -17 13 -21 0 -12 92 -131 131 -169 59 -57 97 -30 227 163 149 222 218 414 216 610 0 97 -2 116 -22 218 -9 43 -7 51 13 75 30 36 82 138 100 199 28 93 20 141 -46 278 -54 111 -109 189 -136 193 -15 2 -25 12 -29 30 -28 121 -59 167 -105 157 -28 -6 -30 -4 -69 82 -23 48 -50 98 -62 110 -26 27 -69 30 -90 6z m100 -120 c22 -49 46 -108 52 -133 7 -25 14 -52 17 -60 3 -10 12 -2 29 25 13 22 29 40 36 40 19 0 56 -140 59 -220 1 -38 4 -56 6 -40 8 62 13 75 33 75 41 0 160 -225 168 -315 7 -82 -35 -191 -110 -287 l-29 -37 22 -103 c38 -184 13 -362 -79 -560 -42 -91 -184 -308 -227 -348 l-27 -25 -34 40 c-106 124 -230 344 -279 495 -37 115 -45 271 -20 404 l18 93 -41 54 c-70 93 -97 162 -97 251 0 74 2 81 59 192 32 64 67 123 78 133 28 25 52 6 59 -48 6 -41 6 -39 8 21 1 60 29 192 45 219 10 16 24 13 30 -6 4 -10 15 -29 25 -42 l18 -24 16 69 c18 76 91 224 111 224 7 0 31 -39 54 -87z"></path><path d="M6335 1546 c5 -69 9 -85 21 -73 4 4 0 37 -9 74 l-17 68 5 -69z"></path><path d="M6802 1544 c-8 -42 -9 -71 -3 -77 6 -6 12 15 16 56 10 90 2 102 -13 21z"></path><path d="M6388 1480 c-10 -6 -21 -34 -28 -68 -7 -31 -34 -147 -62 -257 -55 -223 -67 -333 -49 -441 12 -70 48 -193 60 -207 4 -4 36 5 72 20 59 26 74 28 204 28 132 0 143 -2 199 -28 32 -15 60 -26 62 -25 12 13 55 170 65 239 14 102 4 187 -42 361 -16 62 -43 168 -59 236 -16 68 -34 130 -41 138 -6 8 -28 14 -49 14 l-37 0 0 -44 c0 -47 -34 -129 -77 -181 l-24 -30 -25 23 c-43 41 -87 134 -87 186 0 45 0 46 -32 46 -18 0 -41 -5 -50 -10z m287 -359 c22 -10 55 -33 73 -51 54 -53 67 -87 67 -171 0 -67 -3 -81 -30 -125 -84 -136 -282 -154 -386 -36 -44 49 -59 91 -59 160 0 102 46 177 135 218 62 29 143 31 200 5z"></path><path d="M6467 846 c-7 -17 39 -66 60 -66 10 0 12 6 7 23 -14 47 -56 73 -67 43z"></path></g><g id="layer111" fill="#fcfdfd" stroke="none"><path d="M1045 2591 c-294 -48 -478 -196 -540 -436 -64 -248 -27 -571 93 -810 108 -218 284 -376 515 -465 118 -46 197 -60 373 -67 239 -9 412 25 617 119 98 46 95 39 72 155 -52 266 -76 387 -81 395 -7 11 -481 11 -488 -1 -3 -4 -1 -35 4 -67 16 -99 14 -314 -3 -356 -39 -94 -170 -77 -257 33 -141 179 -261 662 -259 1049 0 148 16 202 68 237 119 81 262 -58 336 -327 44 -158 6 -140 289 -140 187 0 245 3 249 13 2 6 -2 35 -8 62 -7 28 -29 131 -50 230 -20 99 -42 190 -48 203 -21 41 -229 124 -397 159 -85 17 -405 26 -485 14z"></path><path d="M6527 2155 c-15 -14 -27 -32 -27 -40 0 -7 -7 -21 -16 -29 -8 -9 -18 -28 -20 -43 -3 -16 -9 -29 -15 -31 -5 -2 -9 -14 -9 -27 0 -28 -17 -42 -33 -26 -6 6 -16 11 -21 11 -21 -1 -57 -40 -62 -67 -3 -15 -9 -32 -15 -37 -5 -6 -9 -25 -9 -43 0 -23 -6 -36 -17 -40 -30 -11 -83 -55 -78 -64 3 -4 -4 -18 -15 -29 -12 -12 -23 -31 -25 -42 -3 -11 -11 -28 -20 -38 -8 -9 -15 -22 -15 -29 0 -7 -9 -24 -20 -38 -11 -14 -17 -30 -14 -35 3 -5 -1 -20 -10 -33 -21 -31 -15 -164 8 -197 9 -12 16 -29 16 -36 0 -8 9 -25 20 -39 11 -14 18 -29 15 -33 -2 -4 7 -18 20 -30 14 -13 25 -28 25 -33 0 -6 7 -18 16 -28 12 -13 13 -22 5 -38 -6 -11 -11 -33 -11 -49 0 -16 -3 -32 -7 -36 -21 -20 -5 -322 18 -351 4 -6 10 -22 13 -35 8 -40 36 -111 51 -134 8 -11 15 -28 15 -38 0 -10 4 -18 9 -18 5 0 15 -16 21 -35 6 -19 15 -35 20 -35 5 0 14 -16 20 -35 6 -19 16 -35 21 -35 5 0 15 -12 22 -28 6 -15 20 -33 29 -40 10 -7 18 -19 18 -26 0 -7 11 -23 25 -36 14 -13 25 -28 25 -34 0 -6 16 -24 36 -39 32 -26 38 -28 65 -16 17 6 38 24 47 38 9 14 23 30 30 34 7 5 17 18 23 30 5 12 25 42 44 67 19 25 40 57 46 72 6 14 17 29 25 32 8 3 14 14 14 24 0 10 9 29 20 42 11 13 20 31 20 40 0 10 7 23 15 30 8 7 15 22 15 34 0 12 7 31 15 42 8 10 15 31 15 47 0 15 4 27 9 27 5 0 12 19 15 43 3 23 8 58 11 77 12 80 4 285 -13 317 -15 28 -5 86 18 102 11 7 20 21 20 31 0 9 9 25 20 35 11 10 20 26 20 35 0 9 7 25 15 36 8 10 15 31 15 46 0 15 4 29 9 32 12 8 13 114 1 121 -6 4 -10 19 -10 34 0 16 -7 34 -15 41 -8 7 -15 20 -15 30 0 9 -9 29 -20 43 -11 14 -20 32 -20 40 0 7 -9 22 -20 32 -11 10 -20 22 -20 28 0 19 -54 72 -74 72 -17 0 -22 7 -24 35 -2 19 -8 39 -13 45 -5 5 -9 18 -9 30 0 11 -12 36 -27 54 -25 28 -31 31 -54 23 -28 -11 -21 -20 -84 110 -32 67 -67 108 -92 108 -10 0 -31 -11 -46 -25z m90 -81 c18 -32 45 -98 60 -146 l28 -86 20 36 c11 21 27 37 35 37 17 0 48 -85 57 -158 5 -44 7 -46 23 -32 9 9 24 13 32 10 22 -9 120 -182 146 -258 21 -62 22 -74 11 -124 -15 -76 -41 -134 -94 -209 l-43 -63 16 -58 c12 -43 17 -97 16 -208 0 -137 -3 -158 -28 -235 -16 -47 -43 -116 -60 -155 -61 -132 -224 -365 -255 -365 -18 0 -116 127 -182 235 -61 101 -114 217 -145 320 -34 114 -38 277 -11 398 l18 77 -34 41 c-69 80 -126 234 -112 301 10 44 65 164 111 240 35 57 38 60 69 55 32 -5 32 -5 38 41 9 73 36 152 52 152 7 0 23 -16 36 -36 l22 -36 22 73 c26 90 92 222 107 217 7 -3 27 -31 45 -64z"></path><path d="M6335 1555 c2 -22 5 -51 5 -64 0 -17 3 -22 10 -15 7 7 6 28 -5 65 -13 46 -15 48 -10 14z"></path><path d="M6798 1515 c-6 -30 -3 -43 8 -33 3 4 4 19 2 35 l-3 28 -7 -30z"></path><path d="M6197 1493 c-3 -5 -10 -27 -17 -51 -12 -48 -6 -82 16 -82 11 0 14 16 14 70 0 66 -3 80 -13 63z"></path><path d="M6386 1477 c-12 -9 -20 -30 -22 -58 -2 -24 -27 -136 -56 -249 -51 -199 -52 -209 -53 -345 0 -127 3 -149 29 -232 l29 -92 38 20 c55 28 154 49 230 49 65 0 68 1 118 46 29 26 73 76 98 112 42 57 47 72 50 126 4 58 3 60 -11 36 -9 -14 -15 -33 -16 -43 0 -29 -35 -89 -72 -124 -126 -121 -320 -85 -394 72 -82 172 61 374 248 352 80 -10 158 -64 204 -143 16 -27 30 -9 18 24 -6 17 -18 28 -33 30 -17 3 -20 6 -11 12 19 12 -19 57 -45 52 -15 -2 -17 -1 -6 6 19 13 6 42 -19 42 -11 0 -20 5 -20 10 0 6 5 10 10 10 15 0 12 30 -11 99 l-21 63 -22 -35 c-11 -19 -32 -48 -46 -64 l-25 -30 -28 31 c-15 17 -41 59 -58 93 -26 51 -30 68 -24 102 l7 41 -34 0 c-19 0 -42 -6 -52 -13z"></path><path d="M6200 1316 c0 -7 7 -19 15 -26 13 -11 15 -8 15 14 0 16 -5 26 -15 26 -8 0 -15 -6 -15 -14z"></path><path d="M6467 846 c-6 -15 42 -66 62 -66 15 0 6 37 -17 63 -18 21 -38 22 -45 3z"></path><path d="M6420 385 c0 -16 6 -25 15 -25 16 0 19 9 9 34 -9 25 -24 19 -24 -9z"></path><path d="M6475 273 c21 -39 46 -81 57 -94 l19 -24 -6 25 c-16 56 -71 155 -89 158 -16 3 -13 -6 19 -65z"></path></g></svg> 