<?xml version="1.0" encoding="utf-8"?>
<!-- Generator: Adobe Illustrator 22.0.1, SVG Export Plug-In . SVG Version: 6.00 Build 0)  -->
<svg version="1.1" id="Ebene_1" xmlns="http://www.w3.org/2000/svg" xmlns:xlink="http://www.w3.org/1999/xlink" x="0px" y="0px"
	 viewBox="0 0 841.9 595.3" style="enable-background:new 0 0 841.9 595.3;" xml:space="preserve">
<style type="text/css">
	.st0{fill:#CF101F;}
</style>
<path class="st0" d="M680.4,345.6h-2.5l-1.9,7.8l-2.3-7.8h-1.8l-2.3,7.8l-1.9-7.8h-2.5l3.3,12.4h2l2.3-7.5l2.3,7.5h2L680.4,345.6z
	 M654.6,353.8h-3.1l1.6-4.5L654.6,353.8z M658.5,358l-4.5-12.4H652l-4.5,12.4h2.5l0.8-2.2h4.4l0.7,2.2H658.5z M639.9,358v-2.2h-5.6
	v-10.3h-2.4V358H639.9z M612.8,347.7v-2.2h-8.9v2.2h3.2V358h2.4v-10.3H612.8z M593.5,353.8h-3.1l1.6-4.5L593.5,353.8z M597.4,358
	l-4.5-12.4H591l-4.5,12.4h2.5l0.7-2.2h4.4l0.7,2.2H597.4z M568.5,354.3c0-1.1-0.3-2-1-2.6c-0.5-0.5-1.2-0.8-2.4-1l-1.5-0.2
	c-0.5-0.1-0.9-0.3-1.2-0.5c-0.3-0.2-0.4-0.6-0.4-0.9c0-0.9,0.6-1.6,1.9-1.6c0.8,0,1.8,0.1,2.5,0.8l1.5-1.5c-1.1-1-2.3-1.4-4-1.4
	c-2.7,0-4.3,1.5-4.3,3.8c0,1,0.3,1.8,0.9,2.4c0.6,0.5,1.3,0.9,2.4,1l1.5,0.2c0.6,0.1,0.9,0.2,1.1,0.4c0.3,0.2,0.4,0.6,0.4,1
	c0,1-0.8,1.5-2.2,1.5c-1.2,0-2.2-0.3-3-1.1l-1.6,1.6c1.2,1.2,2.6,1.6,4.5,1.6C566.5,358.1,568.5,356.7,568.5,354.3 M552,345.6h-2.6
	l-2.3,5l-2.3-5h-2.6l3.7,7.3v5.1h2.4v-5.1L552,345.6z M534.2,358v-2.2h-5.8v-3h4.9v-2.2h-4.9v-2.9h5.8v-2.2H526V358H534.2z
	 M516.1,358v-12.4h-2.4v7.6l-4.9-7.6h-2.2V358h2.4v-7.6l4.9,7.6H516.1z M494.7,349.4c0,1-0.7,1.6-1.8,1.6h-2.3v-3.3h2.3
	C494,347.7,494.7,348.4,494.7,349.4 M497.6,358l-2.8-5.4c1.2-0.4,2.3-1.5,2.3-3.3c0-2.1-1.5-3.8-4-3.8h-4.9V358h2.4v-5h1.7l2.4,5
	H497.6z M476.4,351.8c0,2.4-0.1,3-0.6,3.5c-0.3,0.4-0.9,0.7-1.6,0.7c-0.7,0-1.2-0.3-1.6-0.7c-0.5-0.5-0.6-1.1-0.6-3.5
	c0-2.4,0.1-3,0.6-3.5c0.4-0.4,0.9-0.7,1.6-0.7c0.7,0,1.2,0.3,1.6,0.7C476.2,348.8,476.4,349.4,476.4,351.8 M478.8,351.8
	c0-2.1,0-3.7-1.2-5c-0.9-0.9-1.9-1.4-3.3-1.4c-1.4,0-2.5,0.5-3.4,1.4c-1.2,1.3-1.2,2.8-1.2,5c0,2.1,0,3.7,1.2,4.9
	c0.9,0.9,2,1.4,3.4,1.4c1.4,0,2.5-0.5,3.3-1.4C478.8,355.5,478.8,353.9,478.8,351.8 M461.5,347.7v-2.2h-8.9v2.2h3.2V358h2.4v-10.3
	H461.5z M444.5,347.7v-2.2h-8.9v2.2h3.2V358h2.4v-10.3H444.5z M425.2,353.8h-3.1l1.6-4.5L425.2,353.8z M429.1,358l-4.5-12.4h-1.9
	l-4.5,12.4h2.5l0.8-2.2h4.4l0.7,2.2H429.1z M385.9,358v-2.2h-5.8v-3h4.9v-2.2h-4.9v-2.9h5.8v-2.2h-8.2V358H385.9z M368.8,347.7v-2.2
	h-8.9v2.2h3.2V358h2.4v-10.3H368.8z M353.3,358v-2.2h-5.6v-10.3h-2.4V358H353.3z M332.8,353.8h-3.1l1.6-4.5L332.8,353.8z M336.7,358
	l-4.5-12.4h-1.9l-4.5,12.4h2.5l0.8-2.2h4.4l0.7,2.2H336.7z M330.3,342.2h-1.9v2.2h1.9V342.2z M334.1,342.2h-1.9v2.2h1.9V342.2z
	 M318.9,345.6h-2.5l-1.9,7.8l-2.3-7.8h-1.8l-2.3,7.8l-1.9-7.8h-2.5L307,358h2l2.3-7.5l2.3,7.5h2L318.9,345.6z M295.1,358v-12.4h-2.4
	v7.6l-4.9-7.6h-2.2V358h2.4v-7.6l4.9,7.6H295.1z M273.2,353.8h-3.1l1.6-4.5L273.2,353.8z M277.1,358l-4.5-12.4h-1.9l-4.5,12.4h2.5
	l0.7-2.2h4.4l0.7,2.2H277.1z M258.3,354.3c0-1.1-0.3-2-1-2.6c-0.5-0.5-1.2-0.8-2.4-1l-1.5-0.2c-0.5-0.1-0.9-0.3-1.1-0.5
	c-0.3-0.2-0.4-0.6-0.4-0.9c0-0.9,0.6-1.6,1.9-1.6c0.8,0,1.8,0.1,2.5,0.8l1.5-1.5c-1.1-1-2.3-1.4-4-1.4c-2.7,0-4.3,1.5-4.3,3.8
	c0,1,0.3,1.8,0.9,2.4c0.6,0.5,1.3,0.9,2.4,1l1.5,0.2c0.6,0.1,0.9,0.2,1.1,0.4c0.3,0.2,0.4,0.6,0.4,1c0,1-0.8,1.5-2.2,1.5
	c-1.1,0-2.2-0.3-3-1.1l-1.6,1.6c1.2,1.2,2.6,1.6,4.5,1.6C256.3,358.1,258.3,356.7,258.3,354.3 M241.3,347.7v-2.2h-8.9v2.2h3.2V358
	h2.4v-10.3H241.3z M223.5,358v-12.4h-2.4v5.1h-4.2v-5.1h-2.4V358h2.4v-5.2h4.2v5.2H223.5z M205.4,354.2h-2.5c-0.2,1-0.9,1.8-2.1,1.8
	c-0.7,0-1.2-0.2-1.6-0.6c-0.5-0.5-0.6-1.1-0.6-3.5c0-2.4,0.1-3,0.6-3.5c0.3-0.4,0.9-0.6,1.6-0.6c1.2,0,1.8,0.8,2.1,1.8h2.5
	c-0.4-2.6-2.2-3.9-4.6-3.9c-1.4,0-2.5,0.5-3.3,1.4c-1.3,1.3-1.2,2.8-1.2,5c0,2.1,0,3.7,1.2,4.9c0.9,0.9,2,1.4,3.3,1.4
	C203.1,358.1,204.9,356.8,205.4,354.2 M187.3,358v-2.2h-5.8v-3h4.9v-2.2h-4.9v-2.9h5.8v-2.2h-8.2V358H187.3z M167.2,349.4
	c0,1-0.7,1.6-1.8,1.6h-2.3v-3.3h2.3C166.5,347.7,167.2,348.4,167.2,349.4 M170.2,358l-2.8-5.4c1.2-0.4,2.3-1.5,2.3-3.3
	c0-2.1-1.5-3.8-4-3.8h-4.9V358h2.4v-5h1.7l2.4,5H170.2z"/>
<path d="M179.5,321.4h4.5v-32.9h-4.5v13.4h-0.1c-1.8-2.8-4.6-4.6-8.1-4.6c-6.7,0-11,5.9-11,12.3c0,6.7,4,12.7,11.2,12.7
	c3.3,0,6.1-1.8,7.9-4.5h0.1V321.4z M172.2,318.2c-4.7,0-7.4-4.1-7.4-8.5c0-4.3,2.7-8.4,7.4-8.4c4.8,0,7.6,3.9,7.6,8.4
	C179.8,314.3,177.1,318.2,172.2,318.2"/>
<path d="M195.5,307.2c0.6-3.3,3.1-5.8,6.6-5.8c3.6,0,5.9,2.4,6.4,5.8H195.5z M213.1,310.6v-0.7c0-7-3.5-12.5-10.9-12.5
	c-7.5,0-11.4,5.4-11.4,12.6c0,6.9,4.3,12.3,11.5,12.3c4.5,0,8.6-2.4,10.8-6.4l-3.8-2.1c-1.7,2.8-3.5,4.5-7,4.5c-4.3,0-7-3.8-7-7.8
	H213.1z"/>
<rect x="224.7" y="288.6" width="4.5" height="32.9"/>
<path d="M259.7,298.1h-4.5v3.9h-0.1c-1.8-2.8-4.6-4.6-8.1-4.6c-6.8,0-11,5.9-11,12.3c0,6.7,4,12.7,11.2,12.7c3.3,0,6.1-1.8,7.9-4.5
	h0.1v3.7h4.5V298.1z M247.9,318.3c-4.7,0-7.4-4.1-7.4-8.5c0-4.4,2.7-8.4,7.4-8.4c4.8,0,7.6,3.8,7.6,8.4
	C255.4,314.4,252.8,318.3,247.9,318.3"/>
<path d="M288.6,299c-1.8-1.1-4.1-1.6-6.2-1.6c-7.2,0-12.8,5.4-12.8,12.6c0,7,5.6,12.3,12.5,12.3c2.3,0,4.4-0.4,6.4-1.6V315
	c-1.7,1.9-3.8,3.1-6.4,3.1c-4.7,0-8.1-3.5-8.1-8.3c0-4.3,3.4-8.2,7.8-8.2c2.7,0,4.9,1.1,6.7,3.1V299z"/>
<path d="M299.6,298.1h-4.5v23.4h4.5V310c0-3.8,0.6-8.3,5.4-8.3c1,0,1.9,0.2,2.7,1l2-4.1c-1.1-0.7-2.4-1.2-3.7-1.2
	c-3,0-5.3,1.8-6.4,4.5h-0.1V298.1z"/>
<path d="M313.4,298.1v13.5c0,6.4,3,10.8,9.9,10.8c6.9,0,9.9-4.4,9.9-10.8v-13.5h-4.5v13c0,3.8-0.9,7.1-5.4,7.1
	c-4.4,0-5.4-3.3-5.4-7.1v-13H313.4z"/>
<polygon points="346.3,317.3 362.1,298.1 340.2,298.1 340.2,302.3 353.3,302.3 337.5,321.5 361.4,321.5 361.4,317.3 "/>
<path d="M490.8,321.5h4.5v-3.7h0.1c1.8,2.7,4.6,4.5,7.9,4.5c7.2,0,11.2-6,11.2-12.7c0-6.4-4.2-12.3-11-12.3c-3.5,0-6.3,1.8-8.1,4.6
	h-0.1v-13.4h-4.5V321.5z M502.4,318.3c-4.7,0-7.4-4.1-7.4-8.5c0-4.4,2.7-8.4,7.4-8.4c4.8,0,7.6,3.8,7.6,8.4
	C510,314.4,507.3,318.3,502.4,318.3"/>
<path d="M525.9,307.2c0.5-3.3,3.1-5.8,6.6-5.8c3.6,0,5.9,2.4,6.4,5.8H525.9z M543.4,310.6v-0.7c0-7-3.5-12.5-10.9-12.5
	c-7.5,0-11.4,5.4-11.4,12.6c0,6.9,4.3,12.3,11.5,12.3c4.5,0,8.6-2.4,10.8-6.4l-3.8-2.1c-1.7,2.8-3.5,4.5-7,4.5c-4.3,0-7-3.8-7-7.8
	H543.4z"/>
<path d="M556.1,298.1h-4.5v23.4h4.5V310c0-3.8,0.6-8.3,5.4-8.3c1,0,1.9,0.2,2.7,1l2-4.1c-1.1-0.7-2.4-1.2-3.7-1.2
	c-3,0-5.3,1.8-6.4,4.5h-0.1V298.1z"/>
<path d="M594,298.1h-4.5v3.9h-0.1c-1.8-2.8-4.6-4.6-8.1-4.6c-6.8,0-11,5.9-11,12.3c0,6.7,4,12.7,11.2,12.7c3.3,0,6.1-1.8,7.9-4.5
	h0.1v3.7h4.5V298.1z M582.2,318.3c-4.7,0-7.4-4.1-7.4-8.5c0-4.4,2.7-8.4,7.4-8.4c4.8,0,7.6,3.8,7.6,8.4
	C589.8,314.4,587.1,318.3,582.2,318.3"/>
<path d="M609.4,298.1h-4.5v23.4h4.5v-10.8c0-4.3,0-9.4,5.8-9.4c4.6,0,5.1,2.7,5.1,6.7v13.4h4.5v-14c0-5.7-1.7-10.2-8.3-10.2
	c-2.8,0-5.6,1.4-7,3.9h-0.1V298.1z"/>
<path d="M636.4,307.2c0.5-3.3,3.1-5.8,6.6-5.8c3.6,0,5.9,2.4,6.4,5.8H636.4z M653.9,310.6v-0.7c0-7-3.5-12.5-10.9-12.5
	c-7.5,0-11.4,5.4-11.4,12.6c0,6.9,4.3,12.3,11.5,12.3c4.5,0,8.6-2.4,10.8-6.4l-3.8-2.1c-1.7,2.8-3.5,4.5-7,4.5c-4.3,0-7-3.8-7-7.8
	H653.9z"/>
<polygon points="665.2,288.6 660.7,288.6 660.7,321.5 665.2,321.5 665.2,312.4 666.8,310.9 675.1,321.5 680.9,321.5 670,307.8 
	679.9,298.1 674,298.1 665.2,306.9 "/>
<rect x="400.4" y="349.1" width="5.5" height="5.5"/>
<rect x="382.5" y="237.3" class="st0" width="3.4" height="3.4"/>
<path class="st0" d="M382.5,237.3h3.4v0.9h-3.4V237.3z M382.5,239.8h3.4v0.9h-3.4V239.8z M382.5,238.2h0.9v1.6h-0.9V238.2z
	 M385,238.2h0.9v1.6H385V238.2z"/>
<rect x="385.9" y="237.3" class="st0" width="3.4" height="3.4"/>
<path class="st0" d="M385.9,237.3h3.4v0.9h-3.4V237.3z M385.9,239.8h3.4v0.9h-3.4V239.8z M385.9,238.2h0.9v1.6h-0.9V238.2z
	 M388.4,238.2h0.9v1.6h-0.9V238.2z"/>
<rect x="389.3" y="237.3" class="st0" width="3.4" height="3.4"/>
<path class="st0" d="M389.3,237.3h3.4v0.9h-3.4V237.3z M389.3,239.8h3.4v0.9h-3.4V239.8z M389.3,238.2h0.9v1.6h-0.9V238.2z
	 M391.8,238.2h0.9v1.6h-0.9V238.2z"/>
<rect x="392.6" y="237.3" class="st0" width="3.4" height="3.4"/>
<path class="st0" d="M392.6,237.3h3.4v0.9h-3.4V237.3z M392.6,239.8h3.4v0.9h-3.4V239.8z M392.6,238.2h0.9v1.6h-0.9V238.2z
	 M395.1,238.2h0.9v1.6h-0.9V238.2z"/>
<rect x="396" y="237.3" class="st0" width="3.4" height="3.4"/>
<path class="st0" d="M396,237.3h3.4v0.9H396V237.3z M396,239.8h3.4v0.9H396V239.8z M396,238.2h0.9v1.6H396V238.2z M398.5,238.2h0.9
	v1.6h-0.9V238.2z"/>
<rect x="399.4" y="237.3" class="st0" width="3.4" height="3.4"/>
<path class="st0" d="M399.4,237.3h3.4v0.9h-3.4V237.3z M399.4,239.8h3.4v0.9h-3.4V239.8z M399.4,238.2h0.9v1.6h-0.9V238.2z
	 M401.9,238.2h0.9v1.6h-0.9V238.2z"/>
<rect x="402.7" y="237.3" class="st0" width="3.4" height="3.4"/>
<path class="st0" d="M402.7,237.3h3.4v0.9h-3.4V237.3z M402.7,239.8h3.4v0.9h-3.4V239.8z M402.7,238.2h0.9v1.6h-0.9V238.2z
	 M405.2,238.2h0.9v1.6h-0.9V238.2z"/>
<rect x="416.2" y="237.3" class="st0" width="3.4" height="3.4"/>
<path class="st0" d="M416.2,237.3h3.4v0.9h-3.4V237.3z M416.2,239.8h3.4v0.9h-3.4V239.8z M416.2,238.2h0.9v1.6h-0.9V238.2z
	 M418.7,238.2h0.9v1.6h-0.9V238.2z"/>
<rect x="422.9" y="237.3" class="st0" width="3.4" height="3.4"/>
<path class="st0" d="M422.9,237.3h3.4v0.9h-3.4V237.3z M422.9,239.8h3.4v0.9h-3.4V239.8z M422.9,238.2h0.9v1.6h-0.9V238.2z
	 M425.4,238.2h0.9v1.6h-0.9V238.2z"/>
<rect x="436.4" y="237.3" class="st0" width="3.4" height="3.4"/>
<path class="st0" d="M436.4,237.3h3.4v0.9h-3.4V237.3z M436.4,239.8h3.4v0.9h-3.4V239.8z M436.4,238.2h0.9v1.6h-0.9V238.2z
	 M438.9,238.2h0.9v1.6h-0.9V238.2z"/>
<rect x="443.1" y="237.3" class="st0" width="3.4" height="3.4"/>
<path class="st0" d="M443.1,237.3h3.4v0.9h-3.4V237.3z M443.1,239.8h3.4v0.9h-3.4V239.8z M443.1,238.2h0.9v1.6h-0.9V238.2z
	 M445.6,238.2h0.9v1.6h-0.9V238.2z"/>
<rect x="446.5" y="237.3" class="st0" width="3.4" height="3.4"/>
<path class="st0" d="M446.5,237.3h3.4v0.9h-3.4V237.3z M446.5,239.8h3.4v0.9h-3.4V239.8z M446.5,238.2h0.9v1.6h-0.9V238.2z
	 M449,238.2h0.9v1.6H449V238.2z"/>
<rect x="449.9" y="237.3" class="st0" width="3.4" height="3.4"/>
<path class="st0" d="M449.9,237.3h3.4v0.9h-3.4V237.3z M449.9,239.8h3.4v0.9h-3.4V239.8z M449.9,238.2h0.9v1.6h-0.9V238.2z
	 M452.4,238.2h0.9v1.6h-0.9V238.2z"/>
<rect x="453.2" y="237.3" class="st0" width="3.4" height="3.4"/>
<path class="st0" d="M453.2,237.3h3.4v0.9h-3.4V237.3z M453.2,239.8h3.4v0.9h-3.4V239.8z M453.2,238.2h0.9v1.6h-0.9V238.2z
	 M455.7,238.2h0.9v1.6h-0.9V238.2z"/>
<rect x="456.6" y="237.3" class="st0" width="3.4" height="3.4"/>
<path class="st0" d="M456.6,237.3h3.4v0.9h-3.4V237.3z M456.6,239.8h3.4v0.9h-3.4V239.8z M456.6,238.2h0.9v1.6h-0.9V238.2z
	 M459.1,238.2h0.9v1.6h-0.9V238.2z"/>
<rect x="460" y="237.3" class="st0" width="3.4" height="3.4"/>
<path class="st0" d="M460,237.3h3.4v0.9H460V237.3z M460,239.8h3.4v0.9H460V239.8z M460,238.2h0.9v1.6H460V238.2z M462.5,238.2h0.9
	v1.6h-0.9V238.2z"/>
<rect x="463.3" y="237.3" class="st0" width="3.4" height="3.4"/>
<path class="st0" d="M463.3,237.3h3.4v0.9h-3.4V237.3z M463.3,239.8h3.4v0.9h-3.4V239.8z M463.3,238.2h0.9v1.6h-0.9V238.2z
	 M465.8,238.2h0.9v1.6h-0.9V238.2z"/>
<rect x="382.5" y="240.7" class="st0" width="3.4" height="3.4"/>
<path class="st0" d="M382.5,240.7h3.4v0.9h-3.4V240.7z M382.5,243.2h3.4v0.9h-3.4V243.2z M382.5,241.6h0.9v1.6h-0.9V241.6z
	 M385,241.6h0.9v1.6H385V241.6z"/>
<rect x="402.7" y="240.7" class="st0" width="3.4" height="3.4"/>
<path class="st0" d="M402.7,240.7h3.4v0.9h-3.4V240.7z M402.7,243.2h3.4v0.9h-3.4V243.2z M402.7,241.6h0.9v1.6h-0.9V241.6z
	 M405.2,241.6h0.9v1.6h-0.9V241.6z"/>
<rect x="409.5" y="240.7" class="st0" width="3.4" height="3.4"/>
<path class="st0" d="M409.5,240.7h3.4v0.9h-3.4V240.7z M409.5,243.2h3.4v0.9h-3.4V243.2z M409.5,241.6h0.9v1.6h-0.9V241.6z
	 M412,241.6h0.9v1.6H412V241.6z"/>
<rect x="416.2" y="240.7" class="st0" width="3.4" height="3.4"/>
<path class="st0" d="M416.2,240.7h3.4v0.9h-3.4V240.7z M416.2,243.2h3.4v0.9h-3.4V243.2z M416.2,241.6h0.9v1.6h-0.9V241.6z
	 M418.7,241.6h0.9v1.6h-0.9V241.6z"/>
<rect x="429.7" y="240.7" class="st0" width="3.4" height="3.4"/>
<path class="st0" d="M429.7,240.7h3.4v0.9h-3.4V240.7z M429.7,243.2h3.4v0.9h-3.4V243.2z M429.7,241.6h0.9v1.6h-0.9V241.6z
	 M432.2,241.6h0.9v1.6h-0.9V241.6z"/>
<rect x="433" y="240.7" class="st0" width="3.4" height="3.4"/>
<path class="st0" d="M433,240.7h3.4v0.9H433V240.7z M433,243.2h3.4v0.9H433V243.2z M433,241.6h0.9v1.6H433V241.6z M435.5,241.6h0.9
	v1.6h-0.9V241.6z"/>
<rect x="443.1" y="240.7" class="st0" width="3.4" height="3.4"/>
<path class="st0" d="M443.1,240.7h3.4v0.9h-3.4V240.7z M443.1,243.2h3.4v0.9h-3.4V243.2z M443.1,241.6h0.9v1.6h-0.9V241.6z
	 M445.6,241.6h0.9v1.6h-0.9V241.6z"/>
<rect x="463.3" y="240.7" class="st0" width="3.4" height="3.4"/>
<path class="st0" d="M463.3,240.7h3.4v0.9h-3.4V240.7z M463.3,243.2h3.4v0.9h-3.4V243.2z M463.3,241.6h0.9v1.6h-0.9V241.6z
	 M465.8,241.6h0.9v1.6h-0.9V241.6z"/>
<rect x="382.5" y="244.1" class="st0" width="3.4" height="3.4"/>
<path class="st0" d="M382.5,244.1h3.4v0.9h-3.4V244.1z M382.5,246.6h3.4v0.9h-3.4V246.6z M382.5,245h0.9v1.6h-0.9V245z M385,245h0.9
	v1.6H385V245z"/>
<rect x="389.3" y="244.1" class="st0" width="3.4" height="3.4"/>
<path class="st0" d="M389.3,244.1h3.4v0.9h-3.4V244.1z M389.3,246.6h3.4v0.9h-3.4V246.6z M389.3,245h0.9v1.6h-0.9V245z M391.8,245
	h0.9v1.6h-0.9V245z"/>
<rect x="392.6" y="244.1" class="st0" width="3.4" height="3.4"/>
<path class="st0" d="M392.6,244.1h3.4v0.9h-3.4V244.1z M392.6,246.6h3.4v0.9h-3.4V246.6z M392.6,245h0.9v1.6h-0.9V245z M395.1,245
	h0.9v1.6h-0.9V245z"/>
<rect x="396" y="244.1" class="st0" width="3.4" height="3.4"/>
<path class="st0" d="M396,244.1h3.4v0.9H396V244.1z M396,246.6h3.4v0.9H396V246.6z M396,245h0.9v1.6H396V245z M398.5,245h0.9v1.6
	h-0.9V245z"/>
<rect x="402.7" y="244.1" class="st0" width="3.4" height="3.4"/>
<path class="st0" d="M402.7,244.1h3.4v0.9h-3.4V244.1z M402.7,246.6h3.4v0.9h-3.4V246.6z M402.7,245h0.9v1.6h-0.9V245z M405.2,245
	h0.9v1.6h-0.9V245z"/>
<rect x="422.9" y="244.1" class="st0" width="3.4" height="3.4"/>
<path class="st0" d="M422.9,244.1h3.4v0.9h-3.4V244.1z M422.9,246.6h3.4v0.9h-3.4V246.6z M422.9,245h0.9v1.6h-0.9V245z M425.4,245
	h0.9v1.6h-0.9V245z"/>
<rect x="429.7" y="244.1" class="st0" width="3.4" height="3.4"/>
<path class="st0" d="M429.7,244.1h3.4v0.9h-3.4V244.1z M429.7,246.6h3.4v0.9h-3.4V246.6z M429.7,245h0.9v1.6h-0.9V245z M432.2,245
	h0.9v1.6h-0.9V245z"/>
<rect x="436.4" y="244.1" class="st0" width="3.4" height="3.4"/>
<path class="st0" d="M436.4,244.1h3.4v0.9h-3.4V244.1z M436.4,246.6h3.4v0.9h-3.4V246.6z M436.4,245h0.9v1.6h-0.9V245z M438.9,245
	h0.9v1.6h-0.9V245z"/>
<rect x="443.1" y="244.1" class="st0" width="3.4" height="3.4"/>
<path class="st0" d="M443.1,244.1h3.4v0.9h-3.4V244.1z M443.1,246.6h3.4v0.9h-3.4V246.6z M443.1,245h0.9v1.6h-0.9V245z M445.6,245
	h0.9v1.6h-0.9V245z"/>
<rect x="449.9" y="244.1" class="st0" width="3.4" height="3.4"/>
<path class="st0" d="M449.9,244.1h3.4v0.9h-3.4V244.1z M449.9,246.6h3.4v0.9h-3.4V246.6z M449.9,245h0.9v1.6h-0.9V245z M452.4,245
	h0.9v1.6h-0.9V245z"/>
<rect x="453.2" y="244.1" class="st0" width="3.4" height="3.4"/>
<path class="st0" d="M453.2,244.1h3.4v0.9h-3.4V244.1z M453.2,246.6h3.4v0.9h-3.4V246.6z M453.2,245h0.9v1.6h-0.9V245z M455.7,245
	h0.9v1.6h-0.9V245z"/>
<rect x="456.6" y="244.1" class="st0" width="3.4" height="3.4"/>
<path class="st0" d="M456.6,244.1h3.4v0.9h-3.4V244.1z M456.6,246.6h3.4v0.9h-3.4V246.6z M456.6,245h0.9v1.6h-0.9V245z M459.1,245
	h0.9v1.6h-0.9V245z"/>
<rect x="463.3" y="244.1" class="st0" width="3.4" height="3.4"/>
<path class="st0" d="M463.3,244.1h3.4v0.9h-3.4V244.1z M463.3,246.6h3.4v0.9h-3.4V246.6z M463.3,245h0.9v1.6h-0.9V245z M465.8,245
	h0.9v1.6h-0.9V245z"/>
<rect x="382.5" y="247.4" class="st0" width="3.4" height="3.4"/>
<path class="st0" d="M382.5,247.4h3.4v0.9h-3.4V247.4z M382.5,249.9h3.4v0.9h-3.4V249.9z M382.5,248.3h0.9v1.6h-0.9V248.3z
	 M385,248.3h0.9v1.6H385V248.3z"/>
<rect x="389.3" y="247.4" class="st0" width="3.4" height="3.4"/>
<path class="st0" d="M389.3,247.4h3.4v0.9h-3.4V247.4z M389.3,249.9h3.4v0.9h-3.4V249.9z M389.3,248.3h0.9v1.6h-0.9V248.3z
	 M391.8,248.3h0.9v1.6h-0.9V248.3z"/>
<rect x="392.6" y="247.4" class="st0" width="3.4" height="3.4"/>
<path class="st0" d="M392.6,247.4h3.4v0.9h-3.4V247.4z M392.6,249.9h3.4v0.9h-3.4V249.9z M392.6,248.3h0.9v1.6h-0.9V248.3z
	 M395.1,248.3h0.9v1.6h-0.9V248.3z"/>
<rect x="396" y="247.4" class="st0" width="3.4" height="3.4"/>
<path class="st0" d="M396,247.4h3.4v0.9H396V247.4z M396,249.9h3.4v0.9H396V249.9z M396,248.3h0.9v1.6H396V248.3z M398.5,248.3h0.9
	v1.6h-0.9V248.3z"/>
<rect x="402.7" y="247.4" class="st0" width="3.4" height="3.4"/>
<path class="st0" d="M402.7,247.4h3.4v0.9h-3.4V247.4z M402.7,249.9h3.4v0.9h-3.4V249.9z M402.7,248.3h0.9v1.6h-0.9V248.3z
	 M405.2,248.3h0.9v1.6h-0.9V248.3z"/>
<rect x="409.5" y="247.4" class="st0" width="3.4" height="3.4"/>
<path class="st0" d="M409.5,247.4h3.4v0.9h-3.4V247.4z M409.5,249.9h3.4v0.9h-3.4V249.9z M409.5,248.3h0.9v1.6h-0.9V248.3z
	 M412,248.3h0.9v1.6H412V248.3z"/>
<rect x="412.8" y="247.4" class="st0" width="3.4" height="3.4"/>
<path class="st0" d="M412.8,247.4h3.4v0.9h-3.4V247.4z M412.8,249.9h3.4v0.9h-3.4V249.9z M412.8,248.3h0.9v1.6h-0.9V248.3z
	 M415.3,248.3h0.9v1.6h-0.9V248.3z"/>
<rect x="416.2" y="247.4" class="st0" width="3.4" height="3.4"/>
<path class="st0" d="M416.2,247.4h3.4v0.9h-3.4V247.4z M416.2,249.9h3.4v0.9h-3.4V249.9z M416.2,248.3h0.9v1.6h-0.9V248.3z
	 M418.7,248.3h0.9v1.6h-0.9V248.3z"/>
<rect x="422.9" y="247.4" class="st0" width="3.4" height="3.4"/>
<path class="st0" d="M422.9,247.4h3.4v0.9h-3.4V247.4z M422.9,249.9h3.4v0.9h-3.4V249.9z M422.9,248.3h0.9v1.6h-0.9V248.3z
	 M425.4,248.3h0.9v1.6h-0.9V248.3z"/>
<rect x="426.3" y="247.4" class="st0" width="3.4" height="3.4"/>
<path class="st0" d="M426.3,247.4h3.4v0.9h-3.4V247.4z M426.3,249.9h3.4v0.9h-3.4V249.9z M426.3,248.3h0.9v1.6h-0.9V248.3z
	 M428.8,248.3h0.9v1.6h-0.9V248.3z"/>
<rect x="429.7" y="247.4" class="st0" width="3.4" height="3.4"/>
<path class="st0" d="M429.7,247.4h3.4v0.9h-3.4V247.4z M429.7,249.9h3.4v0.9h-3.4V249.9z M429.7,248.3h0.9v1.6h-0.9V248.3z
	 M432.2,248.3h0.9v1.6h-0.9V248.3z"/>
<rect x="443.1" y="247.4" class="st0" width="3.4" height="3.4"/>
<path class="st0" d="M443.1,247.4h3.4v0.9h-3.4V247.4z M443.1,249.9h3.4v0.9h-3.4V249.9z M443.1,248.3h0.9v1.6h-0.9V248.3z
	 M445.6,248.3h0.9v1.6h-0.9V248.3z"/>
<rect x="449.9" y="247.4" class="st0" width="3.4" height="3.4"/>
<path class="st0" d="M449.9,247.4h3.4v0.9h-3.4V247.4z M449.9,249.9h3.4v0.9h-3.4V249.9z M449.9,248.3h0.9v1.6h-0.9V248.3z
	 M452.4,248.3h0.9v1.6h-0.9V248.3z"/>
<rect x="453.2" y="247.4" class="st0" width="3.4" height="3.4"/>
<path class="st0" d="M453.2,247.4h3.4v0.9h-3.4V247.4z M453.2,249.9h3.4v0.9h-3.4V249.9z M453.2,248.3h0.9v1.6h-0.9V248.3z
	 M455.7,248.3h0.9v1.6h-0.9V248.3z"/>
<rect x="456.6" y="247.4" class="st0" width="3.4" height="3.4"/>
<path class="st0" d="M456.6,247.4h3.4v0.9h-3.4V247.4z M456.6,249.9h3.4v0.9h-3.4V249.9z M456.6,248.3h0.9v1.6h-0.9V248.3z
	 M459.1,248.3h0.9v1.6h-0.9V248.3z"/>
<rect x="463.3" y="247.4" class="st0" width="3.4" height="3.4"/>
<path class="st0" d="M463.3,247.4h3.4v0.9h-3.4V247.4z M463.3,249.9h3.4v0.9h-3.4V249.9z M463.3,248.3h0.9v1.6h-0.9V248.3z
	 M465.8,248.3h0.9v1.6h-0.9V248.3z"/>
<rect x="382.5" y="250.8" class="st0" width="3.4" height="3.4"/>
<path class="st0" d="M382.5,250.8h3.4v0.9h-3.4V250.8z M382.5,253.3h3.4v0.9h-3.4V253.3z M382.5,251.7h0.9v1.6h-0.9V251.7z
	 M385,251.7h0.9v1.6H385V251.7z"/>
<rect x="389.3" y="250.8" class="st0" width="3.4" height="3.4"/>
<path class="st0" d="M389.3,250.8h3.4v0.9h-3.4V250.8z M389.3,253.3h3.4v0.9h-3.4V253.3z M389.3,251.7h0.9v1.6h-0.9V251.7z
	 M391.8,251.7h0.9v1.6h-0.9V251.7z"/>
<rect x="392.6" y="250.8" class="st0" width="3.4" height="3.4"/>
<path class="st0" d="M392.6,250.8h3.4v0.9h-3.4V250.8z M392.6,253.3h3.4v0.9h-3.4V253.3z M392.6,251.7h0.9v1.6h-0.9V251.7z
	 M395.1,251.7h0.9v1.6h-0.9V251.7z"/>
<rect x="396" y="250.8" class="st0" width="3.4" height="3.4"/>
<path class="st0" d="M396,250.8h3.4v0.9H396V250.8z M396,253.3h3.4v0.9H396V253.3z M396,251.7h0.9v1.6H396V251.7z M398.5,251.7h0.9
	v1.6h-0.9V251.7z"/>
<rect x="402.7" y="250.8" class="st0" width="3.4" height="3.4"/>
<path class="st0" d="M402.7,250.8h3.4v0.9h-3.4V250.8z M402.7,253.3h3.4v0.9h-3.4V253.3z M402.7,251.7h0.9v1.6h-0.9V251.7z
	 M405.2,251.7h0.9v1.6h-0.9V251.7z"/>
<rect x="412.8" y="250.8" class="st0" width="3.4" height="3.4"/>
<path class="st0" d="M412.8,250.8h3.4v0.9h-3.4V250.8z M412.8,253.3h3.4v0.9h-3.4V253.3z M412.8,251.7h0.9v1.6h-0.9V251.7z
	 M415.3,251.7h0.9v1.6h-0.9V251.7z"/>
<rect x="426.3" y="250.8" class="st0" width="3.4" height="3.4"/>
<path class="st0" d="M426.3,250.8h3.4v0.9h-3.4V250.8z M426.3,253.3h3.4v0.9h-3.4V253.3z M426.3,251.7h0.9v1.6h-0.9V251.7z
	 M428.8,251.7h0.9v1.6h-0.9V251.7z"/>
<rect x="436.4" y="250.8" class="st0" width="3.4" height="3.4"/>
<path class="st0" d="M436.4,250.8h3.4v0.9h-3.4V250.8z M436.4,253.3h3.4v0.9h-3.4V253.3z M436.4,251.7h0.9v1.6h-0.9V251.7z
	 M438.9,251.7h0.9v1.6h-0.9V251.7z"/>
<rect x="443.1" y="250.8" class="st0" width="3.4" height="3.4"/>
<path class="st0" d="M443.1,250.8h3.4v0.9h-3.4V250.8z M443.1,253.3h3.4v0.9h-3.4V253.3z M443.1,251.7h0.9v1.6h-0.9V251.7z
	 M445.6,251.7h0.9v1.6h-0.9V251.7z"/>
<rect x="449.9" y="250.8" class="st0" width="3.4" height="3.4"/>
<path class="st0" d="M449.9,250.8h3.4v0.9h-3.4V250.8z M449.9,253.3h3.4v0.9h-3.4V253.3z M449.9,251.7h0.9v1.6h-0.9V251.7z
	 M452.4,251.7h0.9v1.6h-0.9V251.7z"/>
<rect x="453.2" y="250.8" class="st0" width="3.4" height="3.4"/>
<path class="st0" d="M453.2,250.8h3.4v0.9h-3.4V250.8z M453.2,253.3h3.4v0.9h-3.4V253.3z M453.2,251.7h0.9v1.6h-0.9V251.7z
	 M455.7,251.7h0.9v1.6h-0.9V251.7z"/>
<rect x="456.6" y="250.8" class="st0" width="3.4" height="3.4"/>
<path class="st0" d="M456.6,250.8h3.4v0.9h-3.4V250.8z M456.6,253.3h3.4v0.9h-3.4V253.3z M456.6,251.7h0.9v1.6h-0.9V251.7z
	 M459.1,251.7h0.9v1.6h-0.9V251.7z"/>
<rect x="463.3" y="250.8" class="st0" width="3.4" height="3.4"/>
<path class="st0" d="M463.3,250.8h3.4v0.9h-3.4V250.8z M463.3,253.3h3.4v0.9h-3.4V253.3z M463.3,251.7h0.9v1.6h-0.9V251.7z
	 M465.8,251.7h0.9v1.6h-0.9V251.7z"/>
<rect x="382.5" y="254.2" class="st0" width="3.4" height="3.4"/>
<path class="st0" d="M382.5,254.2h3.4v0.9h-3.4V254.2z M382.5,256.7h3.4v0.9h-3.4V256.7z M382.5,255.1h0.9v1.6h-0.9V255.1z
	 M385,255.1h0.9v1.6H385V255.1z"/>
<rect x="402.7" y="254.2" class="st0" width="3.4" height="3.4"/>
<path class="st0" d="M402.7,254.2h3.4v0.9h-3.4V254.2z M402.7,256.7h3.4v0.9h-3.4V256.7z M402.7,255.1h0.9v1.6h-0.9V255.1z
	 M405.2,255.1h0.9v1.6h-0.9V255.1z"/>
<rect x="409.5" y="254.2" class="st0" width="3.4" height="3.4"/>
<path class="st0" d="M409.5,254.2h3.4v0.9h-3.4V254.2z M409.5,256.7h3.4v0.9h-3.4V256.7z M409.5,255.1h0.9v1.6h-0.9V255.1z
	 M412,255.1h0.9v1.6H412V255.1z"/>
<rect x="412.8" y="254.2" class="st0" width="3.4" height="3.4"/>
<path class="st0" d="M412.8,254.2h3.4v0.9h-3.4V254.2z M412.8,256.7h3.4v0.9h-3.4V256.7z M412.8,255.1h0.9v1.6h-0.9V255.1z
	 M415.3,255.1h0.9v1.6h-0.9V255.1z"/>
<rect x="419.6" y="254.2" class="st0" width="3.4" height="3.4"/>
<path class="st0" d="M419.6,254.2h3.4v0.9h-3.4V254.2z M419.6,256.7h3.4v0.9h-3.4V256.7z M419.6,255.1h0.9v1.6h-0.9V255.1z
	 M422.1,255.1h0.9v1.6h-0.9V255.1z"/>
<rect x="422.9" y="254.2" class="st0" width="3.4" height="3.4"/>
<path class="st0" d="M422.9,254.2h3.4v0.9h-3.4V254.2z M422.9,256.7h3.4v0.9h-3.4V256.7z M422.9,255.1h0.9v1.6h-0.9V255.1z
	 M425.4,255.1h0.9v1.6h-0.9V255.1z"/>
<rect x="426.3" y="254.2" class="st0" width="3.4" height="3.4"/>
<path class="st0" d="M426.3,254.2h3.4v0.9h-3.4V254.2z M426.3,256.7h3.4v0.9h-3.4V256.7z M426.3,255.1h0.9v1.6h-0.9V255.1z
	 M428.8,255.1h0.9v1.6h-0.9V255.1z"/>
<rect x="433" y="254.2" class="st0" width="3.4" height="3.4"/>
<path class="st0" d="M433,254.2h3.4v0.9H433V254.2z M433,256.7h3.4v0.9H433V256.7z M433,255.1h0.9v1.6H433V255.1z M435.5,255.1h0.9
	v1.6h-0.9V255.1z"/>
<rect x="436.4" y="254.2" class="st0" width="3.4" height="3.4"/>
<path class="st0" d="M436.4,254.2h3.4v0.9h-3.4V254.2z M436.4,256.7h3.4v0.9h-3.4V256.7z M436.4,255.1h0.9v1.6h-0.9V255.1z
	 M438.9,255.1h0.9v1.6h-0.9V255.1z"/>
<rect x="443.1" y="254.2" class="st0" width="3.4" height="3.4"/>
<path class="st0" d="M443.1,254.2h3.4v0.9h-3.4V254.2z M443.1,256.7h3.4v0.9h-3.4V256.7z M443.1,255.1h0.9v1.6h-0.9V255.1z
	 M445.6,255.1h0.9v1.6h-0.9V255.1z"/>
<rect x="463.3" y="254.2" class="st0" width="3.4" height="3.4"/>
<path class="st0" d="M463.3,254.2h3.4v0.9h-3.4V254.2z M463.3,256.7h3.4v0.9h-3.4V256.7z M463.3,255.1h0.9v1.6h-0.9V255.1z
	 M465.8,255.1h0.9v1.6h-0.9V255.1z"/>
<rect x="382.5" y="257.5" class="st0" width="3.4" height="3.4"/>
<path class="st0" d="M382.5,257.5h3.4v0.9h-3.4V257.5z M382.5,260h3.4v0.9h-3.4V260z M382.5,258.4h0.9v1.6h-0.9V258.4z M385,258.4
	h0.9v1.6H385V258.4z"/>
<rect x="385.9" y="257.5" class="st0" width="3.4" height="3.4"/>
<path class="st0" d="M385.9,257.5h3.4v0.9h-3.4V257.5z M385.9,260h3.4v0.9h-3.4V260z M385.9,258.4h0.9v1.6h-0.9V258.4z M388.4,258.4
	h0.9v1.6h-0.9V258.4z"/>
<rect x="389.3" y="257.5" class="st0" width="3.4" height="3.4"/>
<path class="st0" d="M389.3,257.5h3.4v0.9h-3.4V257.5z M389.3,260h3.4v0.9h-3.4V260z M389.3,258.4h0.9v1.6h-0.9V258.4z M391.8,258.4
	h0.9v1.6h-0.9V258.4z"/>
<rect x="392.6" y="257.5" class="st0" width="3.4" height="3.4"/>
<path class="st0" d="M392.6,257.5h3.4v0.9h-3.4V257.5z M392.6,260h3.4v0.9h-3.4V260z M392.6,258.4h0.9v1.6h-0.9V258.4z M395.1,258.4
	h0.9v1.6h-0.9V258.4z"/>
<rect x="396" y="257.5" class="st0" width="3.4" height="3.4"/>
<path class="st0" d="M396,257.5h3.4v0.9H396V257.5z M396,260h3.4v0.9H396V260z M396,258.4h0.9v1.6H396V258.4z M398.5,258.4h0.9v1.6
	h-0.9V258.4z"/>
<rect x="399.4" y="257.5" class="st0" width="3.4" height="3.4"/>
<path class="st0" d="M399.4,257.5h3.4v0.9h-3.4V257.5z M399.4,260h3.4v0.9h-3.4V260z M399.4,258.4h0.9v1.6h-0.9V258.4z M401.9,258.4
	h0.9v1.6h-0.9V258.4z"/>
<rect x="402.7" y="257.5" class="st0" width="3.4" height="3.4"/>
<path class="st0" d="M402.7,257.5h3.4v0.9h-3.4V257.5z M402.7,260h3.4v0.9h-3.4V260z M402.7,258.4h0.9v1.6h-0.9V258.4z M405.2,258.4
	h0.9v1.6h-0.9V258.4z"/>
<rect x="409.5" y="257.5" class="st0" width="3.4" height="3.4"/>
<path class="st0" d="M409.5,257.5h3.4v0.9h-3.4V257.5z M409.5,260h3.4v0.9h-3.4V260z M409.5,258.4h0.9v1.6h-0.9V258.4z M412,258.4
	h0.9v1.6H412V258.4z"/>
<rect x="416.2" y="257.5" class="st0" width="3.4" height="3.4"/>
<path class="st0" d="M416.2,257.5h3.4v0.9h-3.4V257.5z M416.2,260h3.4v0.9h-3.4V260z M416.2,258.4h0.9v1.6h-0.9V258.4z M418.7,258.4
	h0.9v1.6h-0.9V258.4z"/>
<rect x="422.9" y="257.5" class="st0" width="3.4" height="3.4"/>
<path class="st0" d="M422.9,257.5h3.4v0.9h-3.4V257.5z M422.9,260h3.4v0.9h-3.4V260z M422.9,258.4h0.9v1.6h-0.9V258.4z M425.4,258.4
	h0.9v1.6h-0.9V258.4z"/>
<rect x="429.7" y="257.5" class="st0" width="3.4" height="3.4"/>
<path class="st0" d="M429.7,257.5h3.4v0.9h-3.4V257.5z M429.7,260h3.4v0.9h-3.4V260z M429.7,258.4h0.9v1.6h-0.9V258.4z M432.2,258.4
	h0.9v1.6h-0.9V258.4z"/>
<rect x="436.4" y="257.5" class="st0" width="3.4" height="3.4"/>
<path class="st0" d="M436.4,257.5h3.4v0.9h-3.4V257.5z M436.4,260h3.4v0.9h-3.4V260z M436.4,258.4h0.9v1.6h-0.9V258.4z M438.9,258.4
	h0.9v1.6h-0.9V258.4z"/>
<rect x="443.1" y="257.5" class="st0" width="3.4" height="3.4"/>
<path class="st0" d="M443.1,257.5h3.4v0.9h-3.4V257.5z M443.1,260h3.4v0.9h-3.4V260z M443.1,258.4h0.9v1.6h-0.9V258.4z M445.6,258.4
	h0.9v1.6h-0.9V258.4z"/>
<rect x="446.5" y="257.5" class="st0" width="3.4" height="3.4"/>
<path class="st0" d="M446.5,257.5h3.4v0.9h-3.4V257.5z M446.5,260h3.4v0.9h-3.4V260z M446.5,258.4h0.9v1.6h-0.9V258.4z M449,258.4
	h0.9v1.6H449V258.4z"/>
<rect x="449.9" y="257.5" class="st0" width="3.4" height="3.4"/>
<path class="st0" d="M449.9,257.5h3.4v0.9h-3.4V257.5z M449.9,260h3.4v0.9h-3.4V260z M449.9,258.4h0.9v1.6h-0.9V258.4z M452.4,258.4
	h0.9v1.6h-0.9V258.4z"/>
<rect x="453.2" y="257.5" class="st0" width="3.4" height="3.4"/>
<path class="st0" d="M453.2,257.5h3.4v0.9h-3.4V257.5z M453.2,260h3.4v0.9h-3.4V260z M453.2,258.4h0.9v1.6h-0.9V258.4z M455.7,258.4
	h0.9v1.6h-0.9V258.4z"/>
<rect x="456.6" y="257.5" class="st0" width="3.4" height="3.4"/>
<path class="st0" d="M456.6,257.5h3.4v0.9h-3.4V257.5z M456.6,260h3.4v0.9h-3.4V260z M456.6,258.4h0.9v1.6h-0.9V258.4z M459.1,258.4
	h0.9v1.6h-0.9V258.4z"/>
<rect x="460" y="257.5" class="st0" width="3.4" height="3.4"/>
<path class="st0" d="M460,257.5h3.4v0.9H460V257.5z M460,260h3.4v0.9H460V260z M460,258.4h0.9v1.6H460V258.4z M462.5,258.4h0.9v1.6
	h-0.9V258.4z"/>
<rect x="463.3" y="257.5" class="st0" width="3.4" height="3.4"/>
<path class="st0" d="M463.3,257.5h3.4v0.9h-3.4V257.5z M463.3,260h3.4v0.9h-3.4V260z M463.3,258.4h0.9v1.6h-0.9V258.4z M465.8,258.4
	h0.9v1.6h-0.9V258.4z"/>
<rect x="412.8" y="260.9" class="st0" width="3.4" height="3.4"/>
<path class="st0" d="M412.8,260.9h3.4v0.9h-3.4V260.9z M412.8,263.4h3.4v0.9h-3.4V263.4z M412.8,261.8h0.9v1.6h-0.9V261.8z
	 M415.3,261.8h0.9v1.6h-0.9V261.8z"/>
<rect x="416.2" y="260.9" class="st0" width="3.4" height="3.4"/>
<path class="st0" d="M416.2,260.9h3.4v0.9h-3.4V260.9z M416.2,263.4h3.4v0.9h-3.4V263.4z M416.2,261.8h0.9v1.6h-0.9V261.8z
	 M418.7,261.8h0.9v1.6h-0.9V261.8z"/>
<rect x="419.6" y="260.9" class="st0" width="3.4" height="3.4"/>
<path class="st0" d="M419.6,260.9h3.4v0.9h-3.4V260.9z M419.6,263.4h3.4v0.9h-3.4V263.4z M419.6,261.8h0.9v1.6h-0.9V261.8z
	 M422.1,261.8h0.9v1.6h-0.9V261.8z"/>
<rect x="429.7" y="260.9" class="st0" width="3.4" height="3.4"/>
<path class="st0" d="M429.7,260.9h3.4v0.9h-3.4V260.9z M429.7,263.4h3.4v0.9h-3.4V263.4z M429.7,261.8h0.9v1.6h-0.9V261.8z
	 M432.2,261.8h0.9v1.6h-0.9V261.8z"/>
<rect x="433" y="260.9" class="st0" width="3.4" height="3.4"/>
<path class="st0" d="M433,260.9h3.4v0.9H433V260.9z M433,263.4h3.4v0.9H433V263.4z M433,261.8h0.9v1.6H433V261.8z M435.5,261.8h0.9
	v1.6h-0.9V261.8z"/>
<rect x="382.5" y="264.3" class="st0" width="3.4" height="3.4"/>
<path class="st0" d="M382.5,264.3h3.4v0.9h-3.4V264.3z M382.5,266.8h3.4v0.9h-3.4V266.8z M382.5,265.2h0.9v1.6h-0.9V265.2z
	 M385,265.2h0.9v1.6H385V265.2z"/>
<rect x="385.9" y="264.3" class="st0" width="3.4" height="3.4"/>
<path class="st0" d="M385.9,264.3h3.4v0.9h-3.4V264.3z M385.9,266.8h3.4v0.9h-3.4V266.8z M385.9,265.2h0.9v1.6h-0.9V265.2z
	 M388.4,265.2h0.9v1.6h-0.9V265.2z"/>
<rect x="389.3" y="264.3" class="st0" width="3.4" height="3.4"/>
<path class="st0" d="M389.3,264.3h3.4v0.9h-3.4V264.3z M389.3,266.8h3.4v0.9h-3.4V266.8z M389.3,265.2h0.9v1.6h-0.9V265.2z
	 M391.8,265.2h0.9v1.6h-0.9V265.2z"/>
<rect x="392.6" y="264.3" class="st0" width="3.4" height="3.4"/>
<path class="st0" d="M392.6,264.3h3.4v0.9h-3.4V264.3z M392.6,266.8h3.4v0.9h-3.4V266.8z M392.6,265.2h0.9v1.6h-0.9V265.2z
	 M395.1,265.2h0.9v1.6h-0.9V265.2z"/>
<rect x="396" y="264.3" class="st0" width="3.4" height="3.4"/>
<path class="st0" d="M396,264.3h3.4v0.9H396V264.3z M396,266.8h3.4v0.9H396V266.8z M396,265.2h0.9v1.6H396V265.2z M398.5,265.2h0.9
	v1.6h-0.9V265.2z"/>
<rect x="402.7" y="264.3" class="st0" width="3.4" height="3.4"/>
<path class="st0" d="M402.7,264.3h3.4v0.9h-3.4V264.3z M402.7,266.8h3.4v0.9h-3.4V266.8z M402.7,265.2h0.9v1.6h-0.9V265.2z
	 M405.2,265.2h0.9v1.6h-0.9V265.2z"/>
<rect x="406.1" y="264.3" class="st0" width="3.4" height="3.4"/>
<path class="st0" d="M406.1,264.3h3.4v0.9h-3.4V264.3z M406.1,266.8h3.4v0.9h-3.4V266.8z M406.1,265.2h0.9v1.6h-0.9V265.2z
	 M408.6,265.2h0.9v1.6h-0.9V265.2z"/>
<rect x="409.5" y="264.3" class="st0" width="3.4" height="3.4"/>
<path class="st0" d="M409.5,264.3h3.4v0.9h-3.4V264.3z M409.5,266.8h3.4v0.9h-3.4V266.8z M409.5,265.2h0.9v1.6h-0.9V265.2z
	 M412,265.2h0.9v1.6H412V265.2z"/>
<rect x="412.8" y="264.3" class="st0" width="3.4" height="3.4"/>
<path class="st0" d="M412.8,264.3h3.4v0.9h-3.4V264.3z M412.8,266.8h3.4v0.9h-3.4V266.8z M412.8,265.2h0.9v1.6h-0.9V265.2z
	 M415.3,265.2h0.9v1.6h-0.9V265.2z"/>
<rect x="419.6" y="264.3" class="st0" width="3.4" height="3.4"/>
<path class="st0" d="M419.6,264.3h3.4v0.9h-3.4V264.3z M419.6,266.8h3.4v0.9h-3.4V266.8z M419.6,265.2h0.9v1.6h-0.9V265.2z
	 M422.1,265.2h0.9v1.6h-0.9V265.2z"/>
<rect x="426.3" y="264.3" class="st0" width="3.4" height="3.4"/>
<path class="st0" d="M426.3,264.3h3.4v0.9h-3.4V264.3z M426.3,266.8h3.4v0.9h-3.4V266.8z M426.3,265.2h0.9v1.6h-0.9V265.2z
	 M428.8,265.2h0.9v1.6h-0.9V265.2z"/>
<rect x="433" y="264.3" class="st0" width="3.4" height="3.4"/>
<path class="st0" d="M433,264.3h3.4v0.9H433V264.3z M433,266.8h3.4v0.9H433V266.8z M433,265.2h0.9v1.6H433V265.2z M435.5,265.2h0.9
	v1.6h-0.9V265.2z"/>
<rect x="439.8" y="264.3" class="st0" width="3.4" height="3.4"/>
<path class="st0" d="M439.8,264.3h3.4v0.9h-3.4V264.3z M439.8,266.8h3.4v0.9h-3.4V266.8z M439.8,265.2h0.9v1.6h-0.9V265.2z
	 M442.3,265.2h0.9v1.6h-0.9V265.2z"/>
<rect x="446.5" y="264.3" class="st0" width="3.4" height="3.4"/>
<path class="st0" d="M446.5,264.3h3.4v0.9h-3.4V264.3z M446.5,266.8h3.4v0.9h-3.4V266.8z M446.5,265.2h0.9v1.6h-0.9V265.2z
	 M449,265.2h0.9v1.6H449V265.2z"/>
<rect x="453.2" y="264.3" class="st0" width="3.4" height="3.4"/>
<path class="st0" d="M453.2,264.3h3.4v0.9h-3.4V264.3z M453.2,266.8h3.4v0.9h-3.4V266.8z M453.2,265.2h0.9v1.6h-0.9V265.2z
	 M455.7,265.2h0.9v1.6h-0.9V265.2z"/>
<rect x="460" y="264.3" class="st0" width="3.4" height="3.4"/>
<path class="st0" d="M460,264.3h3.4v0.9H460V264.3z M460,266.8h3.4v0.9H460V266.8z M460,265.2h0.9v1.6H460V265.2z M462.5,265.2h0.9
	v1.6h-0.9V265.2z"/>
<rect x="385.9" y="267.6" class="st0" width="3.4" height="3.4"/>
<path class="st0" d="M385.9,267.6h3.4v0.9h-3.4V267.6z M385.9,270.1h3.4v0.9h-3.4V270.1z M385.9,268.5h0.9v1.6h-0.9V268.5z
	 M388.4,268.5h0.9v1.6h-0.9V268.5z"/>
<rect x="399.4" y="267.6" class="st0" width="3.4" height="3.4"/>
<path class="st0" d="M399.4,267.6h3.4v0.9h-3.4V267.6z M399.4,270.1h3.4v0.9h-3.4V270.1z M399.4,268.5h0.9v1.6h-0.9V268.5z
	 M401.9,268.5h0.9v1.6h-0.9V268.5z"/>
<rect x="406.1" y="267.6" class="st0" width="3.4" height="3.4"/>
<path class="st0" d="M406.1,267.6h3.4v0.9h-3.4V267.6z M406.1,270.1h3.4v0.9h-3.4V270.1z M406.1,268.5h0.9v1.6h-0.9V268.5z
	 M408.6,268.5h0.9v1.6h-0.9V268.5z"/>
<rect x="409.5" y="267.6" class="st0" width="3.4" height="3.4"/>
<path class="st0" d="M409.5,267.6h3.4v0.9h-3.4V267.6z M409.5,270.1h3.4v0.9h-3.4V270.1z M409.5,268.5h0.9v1.6h-0.9V268.5z
	 M412,268.5h0.9v1.6H412V268.5z"/>
<rect x="416.2" y="267.6" class="st0" width="3.4" height="3.4"/>
<path class="st0" d="M416.2,267.6h3.4v0.9h-3.4V267.6z M416.2,270.1h3.4v0.9h-3.4V270.1z M416.2,268.5h0.9v1.6h-0.9V268.5z
	 M418.7,268.5h0.9v1.6h-0.9V268.5z"/>
<rect x="422.9" y="267.6" class="st0" width="3.4" height="3.4"/>
<path class="st0" d="M422.9,267.6h3.4v0.9h-3.4V267.6z M422.9,270.1h3.4v0.9h-3.4V270.1z M422.9,268.5h0.9v1.6h-0.9V268.5z
	 M425.4,268.5h0.9v1.6h-0.9V268.5z"/>
<rect x="426.3" y="267.6" class="st0" width="3.4" height="3.4"/>
<path class="st0" d="M426.3,267.6h3.4v0.9h-3.4V267.6z M426.3,270.1h3.4v0.9h-3.4V270.1z M426.3,268.5h0.9v1.6h-0.9V268.5z
	 M428.8,268.5h0.9v1.6h-0.9V268.5z"/>
<rect x="436.4" y="267.6" class="st0" width="3.4" height="3.4"/>
<path class="st0" d="M436.4,267.6h3.4v0.9h-3.4V267.6z M436.4,270.1h3.4v0.9h-3.4V270.1z M436.4,268.5h0.9v1.6h-0.9V268.5z
	 M438.9,268.5h0.9v1.6h-0.9V268.5z"/>
<rect x="439.8" y="267.6" class="st0" width="3.4" height="3.4"/>
<path class="st0" d="M439.8,267.6h3.4v0.9h-3.4V267.6z M439.8,270.1h3.4v0.9h-3.4V270.1z M439.8,268.5h0.9v1.6h-0.9V268.5z
	 M442.3,268.5h0.9v1.6h-0.9V268.5z"/>
<rect x="446.5" y="267.6" class="st0" width="3.4" height="3.4"/>
<path class="st0" d="M446.5,267.6h3.4v0.9h-3.4V267.6z M446.5,270.1h3.4v0.9h-3.4V270.1z M446.5,268.5h0.9v1.6h-0.9V268.5z
	 M449,268.5h0.9v1.6H449V268.5z"/>
<rect x="460" y="267.6" class="st0" width="3.4" height="3.4"/>
<path class="st0" d="M460,267.6h3.4v0.9H460V267.6z M460,270.1h3.4v0.9H460V270.1z M460,268.5h0.9v1.6H460V268.5z M462.5,268.5h0.9
	v1.6h-0.9V268.5z"/>
<rect x="382.5" y="271" class="st0" width="3.4" height="3.4"/>
<path class="st0" d="M382.5,271h3.4v0.9h-3.4V271z M382.5,273.5h3.4v0.9h-3.4V273.5z M382.5,271.9h0.9v1.6h-0.9V271.9z M385,271.9
	h0.9v1.6H385V271.9z"/>
<rect x="389.3" y="271" class="st0" width="3.4" height="3.4"/>
<path class="st0" d="M389.3,271h3.4v0.9h-3.4V271z M389.3,273.5h3.4v0.9h-3.4V273.5z M389.3,271.9h0.9v1.6h-0.9V271.9z M391.8,271.9
	h0.9v1.6h-0.9V271.9z"/>
<rect x="392.6" y="271" class="st0" width="3.4" height="3.4"/>
<path class="st0" d="M392.6,271h3.4v0.9h-3.4V271z M392.6,273.5h3.4v0.9h-3.4V273.5z M392.6,271.9h0.9v1.6h-0.9V271.9z M395.1,271.9
	h0.9v1.6h-0.9V271.9z"/>
<rect x="396" y="271" class="st0" width="3.4" height="3.4"/>
<path class="st0" d="M396,271h3.4v0.9H396V271z M396,273.5h3.4v0.9H396V273.5z M396,271.9h0.9v1.6H396V271.9z M398.5,271.9h0.9v1.6
	h-0.9V271.9z"/>
<rect x="402.7" y="271" class="st0" width="3.4" height="3.4"/>
<path class="st0" d="M402.7,271h3.4v0.9h-3.4V271z M402.7,273.5h3.4v0.9h-3.4V273.5z M402.7,271.9h0.9v1.6h-0.9V271.9z M405.2,271.9
	h0.9v1.6h-0.9V271.9z"/>
<rect x="409.5" y="271" class="st0" width="3.4" height="3.4"/>
<path class="st0" d="M409.5,271h3.4v0.9h-3.4V271z M409.5,273.5h3.4v0.9h-3.4V273.5z M409.5,271.9h0.9v1.6h-0.9V271.9z M412,271.9
	h0.9v1.6H412V271.9z"/>
<rect x="416.2" y="271" class="st0" width="3.4" height="3.4"/>
<path class="st0" d="M416.2,271h3.4v0.9h-3.4V271z M416.2,273.5h3.4v0.9h-3.4V273.5z M416.2,271.9h0.9v1.6h-0.9V271.9z M418.7,271.9
	h0.9v1.6h-0.9V271.9z"/>
<rect x="426.3" y="271" class="st0" width="3.4" height="3.4"/>
<path class="st0" d="M426.3,271h3.4v0.9h-3.4V271z M426.3,273.5h3.4v0.9h-3.4V273.5z M426.3,271.9h0.9v1.6h-0.9V271.9z M428.8,271.9
	h0.9v1.6h-0.9V271.9z"/>
<rect x="429.7" y="271" class="st0" width="3.4" height="3.4"/>
<path class="st0" d="M429.7,271h3.4v0.9h-3.4V271z M429.7,273.5h3.4v0.9h-3.4V273.5z M429.7,271.9h0.9v1.6h-0.9V271.9z M432.2,271.9
	h0.9v1.6h-0.9V271.9z"/>
<rect x="433" y="271" class="st0" width="3.4" height="3.4"/>
<path class="st0" d="M433,271h3.4v0.9H433V271z M433,273.5h3.4v0.9H433V273.5z M433,271.9h0.9v1.6H433V271.9z M435.5,271.9h0.9v1.6
	h-0.9V271.9z"/>
<rect x="443.1" y="271" class="st0" width="3.4" height="3.4"/>
<path class="st0" d="M443.1,271h3.4v0.9h-3.4V271z M443.1,273.5h3.4v0.9h-3.4V273.5z M443.1,271.9h0.9v1.6h-0.9V271.9z M445.6,271.9
	h0.9v1.6h-0.9V271.9z"/>
<rect x="446.5" y="271" class="st0" width="3.4" height="3.4"/>
<path class="st0" d="M446.5,271h3.4v0.9h-3.4V271z M446.5,273.5h3.4v0.9h-3.4V273.5z M446.5,271.9h0.9v1.6h-0.9V271.9z M449,271.9
	h0.9v1.6H449V271.9z"/>
<rect x="449.9" y="271" class="st0" width="3.4" height="3.4"/>
<path class="st0" d="M449.9,271h3.4v0.9h-3.4V271z M449.9,273.5h3.4v0.9h-3.4V273.5z M449.9,271.9h0.9v1.6h-0.9V271.9z M452.4,271.9
	h0.9v1.6h-0.9V271.9z"/>
<rect x="456.6" y="271" class="st0" width="3.4" height="3.4"/>
<path class="st0" d="M456.6,271h3.4v0.9h-3.4V271z M456.6,273.5h3.4v0.9h-3.4V273.5z M456.6,271.9h0.9v1.6h-0.9V271.9z M459.1,271.9
	h0.9v1.6h-0.9V271.9z"/>
<rect x="460" y="271" class="st0" width="3.4" height="3.4"/>
<path class="st0" d="M460,271h3.4v0.9H460V271z M460,273.5h3.4v0.9H460V273.5z M460,271.9h0.9v1.6H460V271.9z M462.5,271.9h0.9v1.6
	h-0.9V271.9z"/>
<rect x="463.3" y="271" class="st0" width="3.4" height="3.4"/>
<path class="st0" d="M463.3,271h3.4v0.9h-3.4V271z M463.3,273.5h3.4v0.9h-3.4V273.5z M463.3,271.9h0.9v1.6h-0.9V271.9z M465.8,271.9
	h0.9v1.6h-0.9V271.9z"/>
<rect x="382.5" y="274.4" class="st0" width="3.4" height="3.4"/>
<path class="st0" d="M382.5,274.4h3.4v0.9h-3.4V274.4z M382.5,276.9h3.4v0.9h-3.4V276.9z M382.5,275.3h0.9v1.6h-0.9V275.3z
	 M385,275.3h0.9v1.6H385V275.3z"/>
<rect x="385.9" y="274.4" class="st0" width="3.4" height="3.4"/>
<path class="st0" d="M385.9,274.4h3.4v0.9h-3.4V274.4z M385.9,276.9h3.4v0.9h-3.4V276.9z M385.9,275.3h0.9v1.6h-0.9V275.3z
	 M388.4,275.3h0.9v1.6h-0.9V275.3z"/>
<rect x="389.3" y="274.4" class="st0" width="3.4" height="3.4"/>
<path class="st0" d="M389.3,274.4h3.4v0.9h-3.4V274.4z M389.3,276.9h3.4v0.9h-3.4V276.9z M389.3,275.3h0.9v1.6h-0.9V275.3z
	 M391.8,275.3h0.9v1.6h-0.9V275.3z"/>
<rect x="396" y="274.4" class="st0" width="3.4" height="3.4"/>
<path class="st0" d="M396,274.4h3.4v0.9H396V274.4z M396,276.9h3.4v0.9H396V276.9z M396,275.3h0.9v1.6H396V275.3z M398.5,275.3h0.9
	v1.6h-0.9V275.3z"/>
<rect x="399.4" y="274.4" class="st0" width="3.4" height="3.4"/>
<path class="st0" d="M399.4,274.4h3.4v0.9h-3.4V274.4z M399.4,276.9h3.4v0.9h-3.4V276.9z M399.4,275.3h0.9v1.6h-0.9V275.3z
	 M401.9,275.3h0.9v1.6h-0.9V275.3z"/>
<rect x="422.9" y="274.4" class="st0" width="3.4" height="3.4"/>
<path class="st0" d="M422.9,274.4h3.4v0.9h-3.4V274.4z M422.9,276.9h3.4v0.9h-3.4V276.9z M422.9,275.3h0.9v1.6h-0.9V275.3z
	 M425.4,275.3h0.9v1.6h-0.9V275.3z"/>
<rect x="453.2" y="274.4" class="st0" width="3.4" height="3.4"/>
<path class="st0" d="M453.2,274.4h3.4v0.9h-3.4V274.4z M453.2,276.9h3.4v0.9h-3.4V276.9z M453.2,275.3h0.9v1.6h-0.9V275.3z
	 M455.7,275.3h0.9v1.6h-0.9V275.3z"/>
<rect x="460" y="274.4" class="st0" width="3.4" height="3.4"/>
<path class="st0" d="M460,274.4h3.4v0.9H460V274.4z M460,276.9h3.4v0.9H460V276.9z M460,275.3h0.9v1.6H460V275.3z M462.5,275.3h0.9
	v1.6h-0.9V275.3z"/>
<rect x="389.3" y="277.7" class="st0" width="3.4" height="3.4"/>
<path class="st0" d="M389.3,277.7h3.4v0.9h-3.4V277.7z M389.3,280.2h3.4v0.9h-3.4V280.2z M389.3,278.6h0.9v1.6h-0.9V278.6z
	 M391.8,278.6h0.9v1.6h-0.9V278.6z"/>
<rect x="396" y="277.7" class="st0" width="3.4" height="3.4"/>
<path class="st0" d="M396,277.7h3.4v0.9H396V277.7z M396,280.2h3.4v0.9H396V280.2z M396,278.6h0.9v1.6H396V278.6z M398.5,278.6h0.9
	v1.6h-0.9V278.6z"/>
<rect x="402.7" y="277.7" class="st0" width="3.4" height="3.4"/>
<path class="st0" d="M402.7,277.7h3.4v0.9h-3.4V277.7z M402.7,280.2h3.4v0.9h-3.4V280.2z M402.7,278.6h0.9v1.6h-0.9V278.6z
	 M405.2,278.6h0.9v1.6h-0.9V278.6z"/>
<rect x="406.1" y="277.7" class="st0" width="3.4" height="3.4"/>
<path class="st0" d="M406.1,277.7h3.4v0.9h-3.4V277.7z M406.1,280.2h3.4v0.9h-3.4V280.2z M406.1,278.6h0.9v1.6h-0.9V278.6z
	 M408.6,278.6h0.9v1.6h-0.9V278.6z"/>
<rect x="412.8" y="277.7" class="st0" width="3.4" height="3.4"/>
<path class="st0" d="M412.8,277.7h3.4v0.9h-3.4V277.7z M412.8,280.2h3.4v0.9h-3.4V280.2z M412.8,278.6h0.9v1.6h-0.9V278.6z
	 M415.3,278.6h0.9v1.6h-0.9V278.6z"/>
<rect x="416.2" y="277.7" class="st0" width="3.4" height="3.4"/>
<path class="st0" d="M416.2,277.7h3.4v0.9h-3.4V277.7z M416.2,280.2h3.4v0.9h-3.4V280.2z M416.2,278.6h0.9v1.6h-0.9V278.6z
	 M418.7,278.6h0.9v1.6h-0.9V278.6z"/>
<rect x="422.9" y="277.7" class="st0" width="3.4" height="3.4"/>
<path class="st0" d="M422.9,277.7h3.4v0.9h-3.4V277.7z M422.9,280.2h3.4v0.9h-3.4V280.2z M422.9,278.6h0.9v1.6h-0.9V278.6z
	 M425.4,278.6h0.9v1.6h-0.9V278.6z"/>
<rect x="426.3" y="277.7" class="st0" width="3.4" height="3.4"/>
<path class="st0" d="M426.3,277.7h3.4v0.9h-3.4V277.7z M426.3,280.2h3.4v0.9h-3.4V280.2z M426.3,278.6h0.9v1.6h-0.9V278.6z
	 M428.8,278.6h0.9v1.6h-0.9V278.6z"/>
<rect x="429.7" y="277.7" class="st0" width="3.4" height="3.4"/>
<path class="st0" d="M429.7,277.7h3.4v0.9h-3.4V277.7z M429.7,280.2h3.4v0.9h-3.4V280.2z M429.7,278.6h0.9v1.6h-0.9V278.6z
	 M432.2,278.6h0.9v1.6h-0.9V278.6z"/>
<rect x="433" y="277.7" class="st0" width="3.4" height="3.4"/>
<path class="st0" d="M433,277.7h3.4v0.9H433V277.7z M433,280.2h3.4v0.9H433V280.2z M433,278.6h0.9v1.6H433V278.6z M435.5,278.6h0.9
	v1.6h-0.9V278.6z"/>
<rect x="436.4" y="277.7" class="st0" width="3.4" height="3.4"/>
<path class="st0" d="M436.4,277.7h3.4v0.9h-3.4V277.7z M436.4,280.2h3.4v0.9h-3.4V280.2z M436.4,278.6h0.9v1.6h-0.9V278.6z
	 M438.9,278.6h0.9v1.6h-0.9V278.6z"/>
<rect x="439.8" y="277.7" class="st0" width="3.4" height="3.4"/>
<path class="st0" d="M439.8,277.7h3.4v0.9h-3.4V277.7z M439.8,280.2h3.4v0.9h-3.4V280.2z M439.8,278.6h0.9v1.6h-0.9V278.6z
	 M442.3,278.6h0.9v1.6h-0.9V278.6z"/>
<rect x="443.1" y="277.7" class="st0" width="3.4" height="3.4"/>
<path class="st0" d="M443.1,277.7h3.4v0.9h-3.4V277.7z M443.1,280.2h3.4v0.9h-3.4V280.2z M443.1,278.6h0.9v1.6h-0.9V278.6z
	 M445.6,278.6h0.9v1.6h-0.9V278.6z"/>
<rect x="449.9" y="277.7" class="st0" width="3.4" height="3.4"/>
<path class="st0" d="M449.9,277.7h3.4v0.9h-3.4V277.7z M449.9,280.2h3.4v0.9h-3.4V280.2z M449.9,278.6h0.9v1.6h-0.9V278.6z
	 M452.4,278.6h0.9v1.6h-0.9V278.6z"/>
<rect x="453.2" y="277.7" class="st0" width="3.4" height="3.4"/>
<path class="st0" d="M453.2,277.7h3.4v0.9h-3.4V277.7z M453.2,280.2h3.4v0.9h-3.4V280.2z M453.2,278.6h0.9v1.6h-0.9V278.6z
	 M455.7,278.6h0.9v1.6h-0.9V278.6z"/>
<rect x="456.6" y="277.7" class="st0" width="3.4" height="3.4"/>
<path class="st0" d="M456.6,277.7h3.4v0.9h-3.4V277.7z M456.6,280.2h3.4v0.9h-3.4V280.2z M456.6,278.6h0.9v1.6h-0.9V278.6z
	 M459.1,278.6h0.9v1.6h-0.9V278.6z"/>
<rect x="460" y="277.7" class="st0" width="3.4" height="3.4"/>
<path class="st0" d="M460,277.7h3.4v0.9H460V277.7z M460,280.2h3.4v0.9H460V280.2z M460,278.6h0.9v1.6H460V278.6z M462.5,278.6h0.9
	v1.6h-0.9V278.6z"/>
<rect x="463.3" y="277.7" class="st0" width="3.4" height="3.4"/>
<path class="st0" d="M463.3,277.7h3.4v0.9h-3.4V277.7z M463.3,280.2h3.4v0.9h-3.4V280.2z M463.3,278.6h0.9v1.6h-0.9V278.6z
	 M465.8,278.6h0.9v1.6h-0.9V278.6z"/>
<rect x="382.5" y="281.1" class="st0" width="3.4" height="3.4"/>
<path class="st0" d="M382.5,281.1h3.4v0.9h-3.4V281.1z M382.5,283.6h3.4v0.9h-3.4V283.6z M382.5,282h0.9v1.6h-0.9V282z M385,282h0.9
	v1.6H385V282z"/>
<rect x="389.3" y="281.1" class="st0" width="3.4" height="3.4"/>
<path class="st0" d="M389.3,281.1h3.4v0.9h-3.4V281.1z M389.3,283.6h3.4v0.9h-3.4V283.6z M389.3,282h0.9v1.6h-0.9V282z M391.8,282
	h0.9v1.6h-0.9V282z"/>
<rect x="396" y="281.1" class="st0" width="3.4" height="3.4"/>
<path class="st0" d="M396,281.1h3.4v0.9H396V281.1z M396,283.6h3.4v0.9H396V283.6z M396,282h0.9v1.6H396V282z M398.5,282h0.9v1.6
	h-0.9V282z"/>
<rect x="399.4" y="281.1" class="st0" width="3.4" height="3.4"/>
<path class="st0" d="M399.4,281.1h3.4v0.9h-3.4V281.1z M399.4,283.6h3.4v0.9h-3.4V283.6z M399.4,282h0.9v1.6h-0.9V282z M401.9,282
	h0.9v1.6h-0.9V282z"/>
<rect x="412.8" y="281.1" class="st0" width="3.4" height="3.4"/>
<path class="st0" d="M412.8,281.1h3.4v0.9h-3.4V281.1z M412.8,283.6h3.4v0.9h-3.4V283.6z M412.8,282h0.9v1.6h-0.9V282z M415.3,282
	h0.9v1.6h-0.9V282z"/>
<rect x="436.4" y="281.1" class="st0" width="3.4" height="3.4"/>
<path class="st0" d="M436.4,281.1h3.4v0.9h-3.4V281.1z M436.4,283.6h3.4v0.9h-3.4V283.6z M436.4,282h0.9v1.6h-0.9V282z M438.9,282
	h0.9v1.6h-0.9V282z"/>
<rect x="439.8" y="281.1" class="st0" width="3.4" height="3.4"/>
<path class="st0" d="M439.8,281.1h3.4v0.9h-3.4V281.1z M439.8,283.6h3.4v0.9h-3.4V283.6z M439.8,282h0.9v1.6h-0.9V282z M442.3,282
	h0.9v1.6h-0.9V282z"/>
<rect x="446.5" y="281.1" class="st0" width="3.4" height="3.4"/>
<path class="st0" d="M446.5,281.1h3.4v0.9h-3.4V281.1z M446.5,283.6h3.4v0.9h-3.4V283.6z M446.5,282h0.9v1.6h-0.9V282z M449,282h0.9
	v1.6H449V282z"/>
<rect x="456.6" y="281.1" class="st0" width="3.4" height="3.4"/>
<path class="st0" d="M456.6,281.1h3.4v0.9h-3.4V281.1z M456.6,283.6h3.4v0.9h-3.4V283.6z M456.6,282h0.9v1.6h-0.9V282z M459.1,282
	h0.9v1.6h-0.9V282z"/>
<rect x="460" y="281.1" class="st0" width="3.4" height="3.4"/>
<path class="st0" d="M460,281.1h3.4v0.9H460V281.1z M460,283.6h3.4v0.9H460V283.6z M460,282h0.9v1.6H460V282z M462.5,282h0.9v1.6
	h-0.9V282z"/>
<rect x="382.5" y="284.5" class="st0" width="3.4" height="3.4"/>
<path class="st0" d="M382.5,284.5h3.4v0.9h-3.4V284.5z M382.5,287h3.4v0.9h-3.4V287z M382.5,285.4h0.9v1.6h-0.9V285.4z M385,285.4
	h0.9v1.6H385V285.4z"/>
<rect x="396" y="284.5" class="st0" width="3.4" height="3.4"/>
<path class="st0" d="M396,284.5h3.4v0.9H396V284.5z M396,287h3.4v0.9H396V287z M396,285.4h0.9v1.6H396V285.4z M398.5,285.4h0.9v1.6
	h-0.9V285.4z"/>
<rect x="399.4" y="284.5" class="st0" width="3.4" height="3.4"/>
<path class="st0" d="M399.4,284.5h3.4v0.9h-3.4V284.5z M399.4,287h3.4v0.9h-3.4V287z M399.4,285.4h0.9v1.6h-0.9V285.4z M401.9,285.4
	h0.9v1.6h-0.9V285.4z"/>
<rect x="402.7" y="284.5" class="st0" width="3.4" height="3.4"/>
<path class="st0" d="M402.7,284.5h3.4v0.9h-3.4V284.5z M402.7,287h3.4v0.9h-3.4V287z M402.7,285.4h0.9v1.6h-0.9V285.4z M405.2,285.4
	h0.9v1.6h-0.9V285.4z"/>
<rect x="406.1" y="284.5" class="st0" width="3.4" height="3.4"/>
<path class="st0" d="M406.1,284.5h3.4v0.9h-3.4V284.5z M406.1,287h3.4v0.9h-3.4V287z M406.1,285.4h0.9v1.6h-0.9V285.4z M408.6,285.4
	h0.9v1.6h-0.9V285.4z"/>
<rect x="409.5" y="284.5" class="st0" width="3.4" height="3.4"/>
<path class="st0" d="M409.5,284.5h3.4v0.9h-3.4V284.5z M409.5,287h3.4v0.9h-3.4V287z M409.5,285.4h0.9v1.6h-0.9V285.4z M412,285.4
	h0.9v1.6H412V285.4z"/>
<rect x="416.2" y="284.5" class="st0" width="3.4" height="3.4"/>
<path class="st0" d="M416.2,284.5h3.4v0.9h-3.4V284.5z M416.2,287h3.4v0.9h-3.4V287z M416.2,285.4h0.9v1.6h-0.9V285.4z M418.7,285.4
	h0.9v1.6h-0.9V285.4z"/>
<rect x="419.6" y="284.5" class="st0" width="3.4" height="3.4"/>
<path class="st0" d="M419.6,284.5h3.4v0.9h-3.4V284.5z M419.6,287h3.4v0.9h-3.4V287z M419.6,285.4h0.9v1.6h-0.9V285.4z M422.1,285.4
	h0.9v1.6h-0.9V285.4z"/>
<rect x="422.9" y="284.5" class="st0" width="3.4" height="3.4"/>
<path class="st0" d="M422.9,284.5h3.4v0.9h-3.4V284.5z M422.9,287h3.4v0.9h-3.4V287z M422.9,285.4h0.9v1.6h-0.9V285.4z M425.4,285.4
	h0.9v1.6h-0.9V285.4z"/>
<rect x="426.3" y="284.5" class="st0" width="3.4" height="3.4"/>
<path class="st0" d="M426.3,284.5h3.4v0.9h-3.4V284.5z M426.3,287h3.4v0.9h-3.4V287z M426.3,285.4h0.9v1.6h-0.9V285.4z M428.8,285.4
	h0.9v1.6h-0.9V285.4z"/>
<rect x="433" y="284.5" class="st0" width="3.4" height="3.4"/>
<path class="st0" d="M433,284.5h3.4v0.9H433V284.5z M433,287h3.4v0.9H433V287z M433,285.4h0.9v1.6H433V285.4z M435.5,285.4h0.9v1.6
	h-0.9V285.4z"/>
<rect x="436.4" y="284.5" class="st0" width="3.4" height="3.4"/>
<path class="st0" d="M436.4,284.5h3.4v0.9h-3.4V284.5z M436.4,287h3.4v0.9h-3.4V287z M436.4,285.4h0.9v1.6h-0.9V285.4z M438.9,285.4
	h0.9v1.6h-0.9V285.4z"/>
<rect x="439.8" y="284.5" class="st0" width="3.4" height="3.4"/>
<path class="st0" d="M439.8,284.5h3.4v0.9h-3.4V284.5z M439.8,287h3.4v0.9h-3.4V287z M439.8,285.4h0.9v1.6h-0.9V285.4z M442.3,285.4
	h0.9v1.6h-0.9V285.4z"/>
<rect x="443.1" y="284.5" class="st0" width="3.4" height="3.4"/>
<path class="st0" d="M443.1,284.5h3.4v0.9h-3.4V284.5z M443.1,287h3.4v0.9h-3.4V287z M443.1,285.4h0.9v1.6h-0.9V285.4z M445.6,285.4
	h0.9v1.6h-0.9V285.4z"/>
<rect x="446.5" y="284.5" class="st0" width="3.4" height="3.4"/>
<path class="st0" d="M446.5,284.5h3.4v0.9h-3.4V284.5z M446.5,287h3.4v0.9h-3.4V287z M446.5,285.4h0.9v1.6h-0.9V285.4z M449,285.4
	h0.9v1.6H449V285.4z"/>
<rect x="453.2" y="284.5" class="st0" width="3.4" height="3.4"/>
<path class="st0" d="M453.2,284.5h3.4v0.9h-3.4V284.5z M453.2,287h3.4v0.9h-3.4V287z M453.2,285.4h0.9v1.6h-0.9V285.4z M455.7,285.4
	h0.9v1.6h-0.9V285.4z"/>
<rect x="456.6" y="284.5" class="st0" width="3.4" height="3.4"/>
<path class="st0" d="M456.6,284.5h3.4v0.9h-3.4V284.5z M456.6,287h3.4v0.9h-3.4V287z M456.6,285.4h0.9v1.6h-0.9V285.4z M459.1,285.4
	h0.9v1.6h-0.9V285.4z"/>
<rect x="460" y="284.5" class="st0" width="3.4" height="3.4"/>
<path class="st0" d="M460,284.5h3.4v0.9H460V284.5z M460,287h3.4v0.9H460V287z M460,285.4h0.9v1.6H460V285.4z M462.5,285.4h0.9v1.6
	h-0.9V285.4z"/>
<rect x="463.3" y="284.5" class="st0" width="3.4" height="3.4"/>
<path class="st0" d="M463.3,284.5h3.4v0.9h-3.4V284.5z M463.3,287h3.4v0.9h-3.4V287z M463.3,285.4h0.9v1.6h-0.9V285.4z M465.8,285.4
	h0.9v1.6h-0.9V285.4z"/>
<rect x="382.5" y="287.8" class="st0" width="3.4" height="3.4"/>
<path class="st0" d="M382.5,287.8h3.4v0.9h-3.4V287.8z M382.5,290.3h3.4v0.9h-3.4V290.3z M382.5,288.7h0.9v1.6h-0.9V288.7z
	 M385,288.7h0.9v1.6H385V288.7z"/>
<rect x="389.3" y="287.8" class="st0" width="3.4" height="3.4"/>
<path class="st0" d="M389.3,287.8h3.4v0.9h-3.4V287.8z M389.3,290.3h3.4v0.9h-3.4V290.3z M389.3,288.7h0.9v1.6h-0.9V288.7z
	 M391.8,288.7h0.9v1.6h-0.9V288.7z"/>
<rect x="396" y="287.8" class="st0" width="3.4" height="3.4"/>
<path class="st0" d="M396,287.8h3.4v0.9H396V287.8z M396,290.3h3.4v0.9H396V290.3z M396,288.7h0.9v1.6H396V288.7z M398.5,288.7h0.9
	v1.6h-0.9V288.7z"/>
<rect x="399.4" y="287.8" class="st0" width="3.4" height="3.4"/>
<path class="st0" d="M399.4,287.8h3.4v0.9h-3.4V287.8z M399.4,290.3h3.4v0.9h-3.4V290.3z M399.4,288.7h0.9v1.6h-0.9V288.7z
	 M401.9,288.7h0.9v1.6h-0.9V288.7z"/>
<rect x="406.1" y="287.8" class="st0" width="3.4" height="3.4"/>
<path class="st0" d="M406.1,287.8h3.4v0.9h-3.4V287.8z M406.1,290.3h3.4v0.9h-3.4V290.3z M406.1,288.7h0.9v1.6h-0.9V288.7z
	 M408.6,288.7h0.9v1.6h-0.9V288.7z"/>
<rect x="412.8" y="287.8" class="st0" width="3.4" height="3.4"/>
<path class="st0" d="M412.8,287.8h3.4v0.9h-3.4V287.8z M412.8,290.3h3.4v0.9h-3.4V290.3z M412.8,288.7h0.9v1.6h-0.9V288.7z
	 M415.3,288.7h0.9v1.6h-0.9V288.7z"/>
<rect x="416.2" y="287.8" class="st0" width="3.4" height="3.4"/>
<path class="st0" d="M416.2,287.8h3.4v0.9h-3.4V287.8z M416.2,290.3h3.4v0.9h-3.4V290.3z M416.2,288.7h0.9v1.6h-0.9V288.7z
	 M418.7,288.7h0.9v1.6h-0.9V288.7z"/>
<rect x="419.6" y="287.8" class="st0" width="3.4" height="3.4"/>
<path class="st0" d="M419.6,287.8h3.4v0.9h-3.4V287.8z M419.6,290.3h3.4v0.9h-3.4V290.3z M419.6,288.7h0.9v1.6h-0.9V288.7z
	 M422.1,288.7h0.9v1.6h-0.9V288.7z"/>
<rect x="429.7" y="287.8" class="st0" width="3.4" height="3.4"/>
<path class="st0" d="M429.7,287.8h3.4v0.9h-3.4V287.8z M429.7,290.3h3.4v0.9h-3.4V290.3z M429.7,288.7h0.9v1.6h-0.9V288.7z
	 M432.2,288.7h0.9v1.6h-0.9V288.7z"/>
<rect x="433" y="287.8" class="st0" width="3.4" height="3.4"/>
<path class="st0" d="M433,287.8h3.4v0.9H433V287.8z M433,290.3h3.4v0.9H433V290.3z M433,288.7h0.9v1.6H433V288.7z M435.5,288.7h0.9
	v1.6h-0.9V288.7z"/>
<rect x="436.4" y="287.8" class="st0" width="3.4" height="3.4"/>
<path class="st0" d="M436.4,287.8h3.4v0.9h-3.4V287.8z M436.4,290.3h3.4v0.9h-3.4V290.3z M436.4,288.7h0.9v1.6h-0.9V288.7z
	 M438.9,288.7h0.9v1.6h-0.9V288.7z"/>
<rect x="439.8" y="287.8" class="st0" width="3.4" height="3.4"/>
<path class="st0" d="M439.8,287.8h3.4v0.9h-3.4V287.8z M439.8,290.3h3.4v0.9h-3.4V290.3z M439.8,288.7h0.9v1.6h-0.9V288.7z
	 M442.3,288.7h0.9v1.6h-0.9V288.7z"/>
<rect x="443.1" y="287.8" class="st0" width="3.4" height="3.4"/>
<path class="st0" d="M443.1,287.8h3.4v0.9h-3.4V287.8z M443.1,290.3h3.4v0.9h-3.4V290.3z M443.1,288.7h0.9v1.6h-0.9V288.7z
	 M445.6,288.7h0.9v1.6h-0.9V288.7z"/>
<rect x="460" y="287.8" class="st0" width="3.4" height="3.4"/>
<path class="st0" d="M460,287.8h3.4v0.9H460V287.8z M460,290.3h3.4v0.9H460V290.3z M460,288.7h0.9v1.6H460V288.7z M462.5,288.7h0.9
	v1.6h-0.9V288.7z"/>
<rect x="382.5" y="291.2" class="st0" width="3.4" height="3.4"/>
<path class="st0" d="M382.5,291.2h3.4v0.9h-3.4V291.2z M382.5,293.7h3.4v0.9h-3.4V293.7z M382.5,292.1h0.9v1.6h-0.9V292.1z
	 M385,292.1h0.9v1.6H385V292.1z"/>
<rect x="389.3" y="291.2" class="st0" width="3.4" height="3.4"/>
<path class="st0" d="M389.3,291.2h3.4v0.9h-3.4V291.2z M389.3,293.7h3.4v0.9h-3.4V293.7z M389.3,292.1h0.9v1.6h-0.9V292.1z
	 M391.8,292.1h0.9v1.6h-0.9V292.1z"/>
<rect x="396" y="291.2" class="st0" width="3.4" height="3.4"/>
<path class="st0" d="M396,291.2h3.4v0.9H396V291.2z M396,293.7h3.4v0.9H396V293.7z M396,292.1h0.9v1.6H396V292.1z M398.5,292.1h0.9
	v1.6h-0.9V292.1z"/>
<rect x="402.7" y="291.2" class="st0" width="3.4" height="3.4"/>
<path class="st0" d="M402.7,291.2h3.4v0.9h-3.4V291.2z M402.7,293.7h3.4v0.9h-3.4V293.7z M402.7,292.1h0.9v1.6h-0.9V292.1z
	 M405.2,292.1h0.9v1.6h-0.9V292.1z"/>
<rect x="406.1" y="291.2" class="st0" width="3.4" height="3.4"/>
<path class="st0" d="M406.1,291.2h3.4v0.9h-3.4V291.2z M406.1,293.7h3.4v0.9h-3.4V293.7z M406.1,292.1h0.9v1.6h-0.9V292.1z
	 M408.6,292.1h0.9v1.6h-0.9V292.1z"/>
<rect x="412.8" y="291.2" class="st0" width="3.4" height="3.4"/>
<path class="st0" d="M412.8,291.2h3.4v0.9h-3.4V291.2z M412.8,293.7h3.4v0.9h-3.4V293.7z M412.8,292.1h0.9v1.6h-0.9V292.1z
	 M415.3,292.1h0.9v1.6h-0.9V292.1z"/>
<rect x="416.2" y="291.2" class="st0" width="3.4" height="3.4"/>
<path class="st0" d="M416.2,291.2h3.4v0.9h-3.4V291.2z M416.2,293.7h3.4v0.9h-3.4V293.7z M416.2,292.1h0.9v1.6h-0.9V292.1z
	 M418.7,292.1h0.9v1.6h-0.9V292.1z"/>
<rect x="419.6" y="291.2" class="st0" width="3.4" height="3.4"/>
<path class="st0" d="M419.6,291.2h3.4v0.9h-3.4V291.2z M419.6,293.7h3.4v0.9h-3.4V293.7z M419.6,292.1h0.9v1.6h-0.9V292.1z
	 M422.1,292.1h0.9v1.6h-0.9V292.1z"/>
<rect x="426.3" y="291.2" class="st0" width="3.4" height="3.4"/>
<path class="st0" d="M426.3,291.2h3.4v0.9h-3.4V291.2z M426.3,293.7h3.4v0.9h-3.4V293.7z M426.3,292.1h0.9v1.6h-0.9V292.1z
	 M428.8,292.1h0.9v1.6h-0.9V292.1z"/>
<rect x="429.7" y="291.2" class="st0" width="3.4" height="3.4"/>
<path class="st0" d="M429.7,291.2h3.4v0.9h-3.4V291.2z M429.7,293.7h3.4v0.9h-3.4V293.7z M429.7,292.1h0.9v1.6h-0.9V292.1z
	 M432.2,292.1h0.9v1.6h-0.9V292.1z"/>
<rect x="433" y="291.2" class="st0" width="3.4" height="3.4"/>
<path class="st0" d="M433,291.2h3.4v0.9H433V291.2z M433,293.7h3.4v0.9H433V293.7z M433,292.1h0.9v1.6H433V292.1z M435.5,292.1h0.9
	v1.6h-0.9V292.1z"/>
<rect x="436.4" y="291.2" class="st0" width="3.4" height="3.4"/>
<path class="st0" d="M436.4,291.2h3.4v0.9h-3.4V291.2z M436.4,293.7h3.4v0.9h-3.4V293.7z M436.4,292.1h0.9v1.6h-0.9V292.1z
	 M438.9,292.1h0.9v1.6h-0.9V292.1z"/>
<rect x="439.8" y="291.2" class="st0" width="3.4" height="3.4"/>
<path class="st0" d="M439.8,291.2h3.4v0.9h-3.4V291.2z M439.8,293.7h3.4v0.9h-3.4V293.7z M439.8,292.1h0.9v1.6h-0.9V292.1z
	 M442.3,292.1h0.9v1.6h-0.9V292.1z"/>
<rect x="443.1" y="291.2" class="st0" width="3.4" height="3.4"/>
<path class="st0" d="M443.1,291.2h3.4v0.9h-3.4V291.2z M443.1,293.7h3.4v0.9h-3.4V293.7z M443.1,292.1h0.9v1.6h-0.9V292.1z
	 M445.6,292.1h0.9v1.6h-0.9V292.1z"/>
<rect x="446.5" y="291.2" class="st0" width="3.4" height="3.4"/>
<path class="st0" d="M446.5,291.2h3.4v0.9h-3.4V291.2z M446.5,293.7h3.4v0.9h-3.4V293.7z M446.5,292.1h0.9v1.6h-0.9V292.1z
	 M449,292.1h0.9v1.6H449V292.1z"/>
<rect x="449.9" y="291.2" class="st0" width="3.4" height="3.4"/>
<path class="st0" d="M449.9,291.2h3.4v0.9h-3.4V291.2z M449.9,293.7h3.4v0.9h-3.4V293.7z M449.9,292.1h0.9v1.6h-0.9V292.1z
	 M452.4,292.1h0.9v1.6h-0.9V292.1z"/>
<rect x="453.2" y="291.2" class="st0" width="3.4" height="3.4"/>
<path class="st0" d="M453.2,291.2h3.4v0.9h-3.4V291.2z M453.2,293.7h3.4v0.9h-3.4V293.7z M453.2,292.1h0.9v1.6h-0.9V292.1z
	 M455.7,292.1h0.9v1.6h-0.9V292.1z"/>
<rect x="456.6" y="291.2" class="st0" width="3.4" height="3.4"/>
<path class="st0" d="M456.6,291.2h3.4v0.9h-3.4V291.2z M456.6,293.7h3.4v0.9h-3.4V293.7z M456.6,292.1h0.9v1.6h-0.9V292.1z
	 M459.1,292.1h0.9v1.6h-0.9V292.1z"/>
<rect x="460" y="291.2" class="st0" width="3.4" height="3.4"/>
<path class="st0" d="M460,291.2h3.4v0.9H460V291.2z M460,293.7h3.4v0.9H460V293.7z M460,292.1h0.9v1.6H460V292.1z M462.5,292.1h0.9
	v1.6h-0.9V292.1z"/>
<rect x="463.3" y="291.2" class="st0" width="3.4" height="3.4"/>
<path class="st0" d="M463.3,291.2h3.4v0.9h-3.4V291.2z M463.3,293.7h3.4v0.9h-3.4V293.7z M463.3,292.1h0.9v1.6h-0.9V292.1z
	 M465.8,292.1h0.9v1.6h-0.9V292.1z"/>
<rect x="409.5" y="294.6" class="st0" width="3.4" height="3.4"/>
<path class="st0" d="M409.5,294.6h3.4v0.9h-3.4V294.6z M409.5,297.1h3.4v0.9h-3.4V297.1z M409.5,295.5h0.9v1.6h-0.9V295.5z
	 M412,295.5h0.9v1.6H412V295.5z"/>
<rect x="412.8" y="294.6" class="st0" width="3.4" height="3.4"/>
<path class="st0" d="M412.8,294.6h3.4v0.9h-3.4V294.6z M412.8,297.1h3.4v0.9h-3.4V297.1z M412.8,295.5h0.9v1.6h-0.9V295.5z
	 M415.3,295.5h0.9v1.6h-0.9V295.5z"/>
<rect x="416.2" y="294.6" class="st0" width="3.4" height="3.4"/>
<path class="st0" d="M416.2,294.6h3.4v0.9h-3.4V294.6z M416.2,297.1h3.4v0.9h-3.4V297.1z M416.2,295.5h0.9v1.6h-0.9V295.5z
	 M418.7,295.5h0.9v1.6h-0.9V295.5z"/>
<rect x="422.9" y="294.6" class="st0" width="3.4" height="3.4"/>
<path class="st0" d="M422.9,294.6h3.4v0.9h-3.4V294.6z M422.9,297.1h3.4v0.9h-3.4V297.1z M422.9,295.5h0.9v1.6h-0.9V295.5z
	 M425.4,295.5h0.9v1.6h-0.9V295.5z"/>
<rect x="426.3" y="294.6" class="st0" width="3.4" height="3.4"/>
<path class="st0" d="M426.3,294.6h3.4v0.9h-3.4V294.6z M426.3,297.1h3.4v0.9h-3.4V297.1z M426.3,295.5h0.9v1.6h-0.9V295.5z
	 M428.8,295.5h0.9v1.6h-0.9V295.5z"/>
<rect x="433" y="294.6" class="st0" width="3.4" height="3.4"/>
<path class="st0" d="M433,294.6h3.4v0.9H433V294.6z M433,297.1h3.4v0.9H433V297.1z M433,295.5h0.9v1.6H433V295.5z M435.5,295.5h0.9
	v1.6h-0.9V295.5z"/>
<rect x="436.4" y="294.6" class="st0" width="3.4" height="3.4"/>
<path class="st0" d="M436.4,294.6h3.4v0.9h-3.4V294.6z M436.4,297.1h3.4v0.9h-3.4V297.1z M436.4,295.5h0.9v1.6h-0.9V295.5z
	 M438.9,295.5h0.9v1.6h-0.9V295.5z"/>
<rect x="449.9" y="294.6" class="st0" width="3.4" height="3.4"/>
<path class="st0" d="M449.9,294.6h3.4v0.9h-3.4V294.6z M449.9,297.1h3.4v0.9h-3.4V297.1z M449.9,295.5h0.9v1.6h-0.9V295.5z
	 M452.4,295.5h0.9v1.6h-0.9V295.5z"/>
<rect x="460" y="294.6" class="st0" width="3.4" height="3.4"/>
<path class="st0" d="M460,294.6h3.4v0.9H460V294.6z M460,297.1h3.4v0.9H460V297.1z M460,295.5h0.9v1.6H460V295.5z M462.5,295.5h0.9
	v1.6h-0.9V295.5z"/>
<rect x="382.5" y="297.9" class="st0" width="3.4" height="3.4"/>
<path class="st0" d="M382.5,297.9h3.4v0.9h-3.4V297.9z M382.5,300.4h3.4v0.9h-3.4V300.4z M382.5,298.8h0.9v1.6h-0.9V298.8z
	 M385,298.8h0.9v1.6H385V298.8z"/>
<rect x="385.9" y="297.9" class="st0" width="3.4" height="3.4"/>
<path class="st0" d="M385.9,297.9h3.4v0.9h-3.4V297.9z M385.9,300.4h3.4v0.9h-3.4V300.4z M385.9,298.8h0.9v1.6h-0.9V298.8z
	 M388.4,298.8h0.9v1.6h-0.9V298.8z"/>
<rect x="389.3" y="297.9" class="st0" width="3.4" height="3.4"/>
<path class="st0" d="M389.3,297.9h3.4v0.9h-3.4V297.9z M389.3,300.4h3.4v0.9h-3.4V300.4z M389.3,298.8h0.9v1.6h-0.9V298.8z
	 M391.8,298.8h0.9v1.6h-0.9V298.8z"/>
<rect x="392.6" y="297.9" class="st0" width="3.4" height="3.4"/>
<path class="st0" d="M392.6,297.9h3.4v0.9h-3.4V297.9z M392.6,300.4h3.4v0.9h-3.4V300.4z M392.6,298.8h0.9v1.6h-0.9V298.8z
	 M395.1,298.8h0.9v1.6h-0.9V298.8z"/>
<rect x="396" y="297.9" class="st0" width="3.4" height="3.4"/>
<path class="st0" d="M396,297.9h3.4v0.9H396V297.9z M396,300.4h3.4v0.9H396V300.4z M396,298.8h0.9v1.6H396V298.8z M398.5,298.8h0.9
	v1.6h-0.9V298.8z"/>
<rect x="399.4" y="297.9" class="st0" width="3.4" height="3.4"/>
<path class="st0" d="M399.4,297.9h3.4v0.9h-3.4V297.9z M399.4,300.4h3.4v0.9h-3.4V300.4z M399.4,298.8h0.9v1.6h-0.9V298.8z
	 M401.9,298.8h0.9v1.6h-0.9V298.8z"/>
<rect x="402.7" y="297.9" class="st0" width="3.4" height="3.4"/>
<path class="st0" d="M402.7,297.9h3.4v0.9h-3.4V297.9z M402.7,300.4h3.4v0.9h-3.4V300.4z M402.7,298.8h0.9v1.6h-0.9V298.8z
	 M405.2,298.8h0.9v1.6h-0.9V298.8z"/>
<rect x="409.5" y="297.9" class="st0" width="3.4" height="3.4"/>
<path class="st0" d="M409.5,297.9h3.4v0.9h-3.4V297.9z M409.5,300.4h3.4v0.9h-3.4V300.4z M409.5,298.8h0.9v1.6h-0.9V298.8z
	 M412,298.8h0.9v1.6H412V298.8z"/>
<rect x="426.3" y="297.9" class="st0" width="3.4" height="3.4"/>
<path class="st0" d="M426.3,297.9h3.4v0.9h-3.4V297.9z M426.3,300.4h3.4v0.9h-3.4V300.4z M426.3,298.8h0.9v1.6h-0.9V298.8z
	 M428.8,298.8h0.9v1.6h-0.9V298.8z"/>
<rect x="429.7" y="297.9" class="st0" width="3.4" height="3.4"/>
<path class="st0" d="M429.7,297.9h3.4v0.9h-3.4V297.9z M429.7,300.4h3.4v0.9h-3.4V300.4z M429.7,298.8h0.9v1.6h-0.9V298.8z
	 M432.2,298.8h0.9v1.6h-0.9V298.8z"/>
<rect x="436.4" y="297.9" class="st0" width="3.4" height="3.4"/>
<path class="st0" d="M436.4,297.9h3.4v0.9h-3.4V297.9z M436.4,300.4h3.4v0.9h-3.4V300.4z M436.4,298.8h0.9v1.6h-0.9V298.8z
	 M438.9,298.8h0.9v1.6h-0.9V298.8z"/>
<rect x="443.1" y="297.9" class="st0" width="3.4" height="3.4"/>
<path class="st0" d="M443.1,297.9h3.4v0.9h-3.4V297.9z M443.1,300.4h3.4v0.9h-3.4V300.4z M443.1,298.8h0.9v1.6h-0.9V298.8z
	 M445.6,298.8h0.9v1.6h-0.9V298.8z"/>
<rect x="449.9" y="297.9" class="st0" width="3.4" height="3.4"/>
<path class="st0" d="M449.9,297.9h3.4v0.9h-3.4V297.9z M449.9,300.4h3.4v0.9h-3.4V300.4z M449.9,298.8h0.9v1.6h-0.9V298.8z
	 M452.4,298.8h0.9v1.6h-0.9V298.8z"/>
<rect x="453.2" y="297.9" class="st0" width="3.4" height="3.4"/>
<path class="st0" d="M453.2,297.9h3.4v0.9h-3.4V297.9z M453.2,300.4h3.4v0.9h-3.4V300.4z M453.2,298.8h0.9v1.6h-0.9V298.8z
	 M455.7,298.8h0.9v1.6h-0.9V298.8z"/>
<rect x="460" y="297.9" class="st0" width="3.4" height="3.4"/>
<path class="st0" d="M460,297.9h3.4v0.9H460V297.9z M460,300.4h3.4v0.9H460V300.4z M460,298.8h0.9v1.6H460V298.8z M462.5,298.8h0.9
	v1.6h-0.9V298.8z"/>
<rect x="463.3" y="297.9" class="st0" width="3.4" height="3.4"/>
<path class="st0" d="M463.3,297.9h3.4v0.9h-3.4V297.9z M463.3,300.4h3.4v0.9h-3.4V300.4z M463.3,298.8h0.9v1.6h-0.9V298.8z
	 M465.8,298.8h0.9v1.6h-0.9V298.8z"/>
<rect x="382.5" y="301.3" class="st0" width="3.4" height="3.4"/>
<path class="st0" d="M382.5,301.3h3.4v0.9h-3.4V301.3z M382.5,303.8h3.4v0.9h-3.4V303.8z M382.5,302.2h0.9v1.6h-0.9V302.2z
	 M385,302.2h0.9v1.6H385V302.2z"/>
<rect x="402.7" y="301.3" class="st0" width="3.4" height="3.4"/>
<path class="st0" d="M402.7,301.3h3.4v0.9h-3.4V301.3z M402.7,303.8h3.4v0.9h-3.4V303.8z M402.7,302.2h0.9v1.6h-0.9V302.2z
	 M405.2,302.2h0.9v1.6h-0.9V302.2z"/>
<rect x="422.9" y="301.3" class="st0" width="3.4" height="3.4"/>
<path class="st0" d="M422.9,301.3h3.4v0.9h-3.4V301.3z M422.9,303.8h3.4v0.9h-3.4V303.8z M422.9,302.2h0.9v1.6h-0.9V302.2z
	 M425.4,302.2h0.9v1.6h-0.9V302.2z"/>
<rect x="429.7" y="301.3" class="st0" width="3.4" height="3.4"/>
<path class="st0" d="M429.7,301.3h3.4v0.9h-3.4V301.3z M429.7,303.8h3.4v0.9h-3.4V303.8z M429.7,302.2h0.9v1.6h-0.9V302.2z
	 M432.2,302.2h0.9v1.6h-0.9V302.2z"/>
<rect x="436.4" y="301.3" class="st0" width="3.4" height="3.4"/>
<path class="st0" d="M436.4,301.3h3.4v0.9h-3.4V301.3z M436.4,303.8h3.4v0.9h-3.4V303.8z M436.4,302.2h0.9v1.6h-0.9V302.2z
	 M438.9,302.2h0.9v1.6h-0.9V302.2z"/>
<rect x="449.9" y="301.3" class="st0" width="3.4" height="3.4"/>
<path class="st0" d="M449.9,301.3h3.4v0.9h-3.4V301.3z M449.9,303.8h3.4v0.9h-3.4V303.8z M449.9,302.2h0.9v1.6h-0.9V302.2z
	 M452.4,302.2h0.9v1.6h-0.9V302.2z"/>
<rect x="460" y="301.3" class="st0" width="3.4" height="3.4"/>
<path class="st0" d="M460,301.3h3.4v0.9H460V301.3z M460,303.8h3.4v0.9H460V303.8z M460,302.2h0.9v1.6H460V302.2z M462.5,302.2h0.9
	v1.6h-0.9V302.2z"/>
<rect x="382.5" y="304.7" class="st0" width="3.4" height="3.4"/>
<path class="st0" d="M382.5,304.7h3.4v0.9h-3.4V304.7z M382.5,307.2h3.4v0.9h-3.4V307.2z M382.5,305.5h0.9v1.6h-0.9V305.5z
	 M385,305.5h0.9v1.6H385V305.5z"/>
<rect x="389.3" y="304.7" class="st0" width="3.4" height="3.4"/>
<path class="st0" d="M389.3,304.7h3.4v0.9h-3.4V304.7z M389.3,307.2h3.4v0.9h-3.4V307.2z M389.3,305.5h0.9v1.6h-0.9V305.5z
	 M391.8,305.5h0.9v1.6h-0.9V305.5z"/>
<rect x="392.6" y="304.7" class="st0" width="3.4" height="3.4"/>
<path class="st0" d="M392.6,304.7h3.4v0.9h-3.4V304.7z M392.6,307.2h3.4v0.9h-3.4V307.2z M392.6,305.5h0.9v1.6h-0.9V305.5z
	 M395.1,305.5h0.9v1.6h-0.9V305.5z"/>
<rect x="396" y="304.7" class="st0" width="3.4" height="3.4"/>
<path class="st0" d="M396,304.7h3.4v0.9H396V304.7z M396,307.2h3.4v0.9H396V307.2z M396,305.5h0.9v1.6H396V305.5z M398.5,305.5h0.9
	v1.6h-0.9V305.5z"/>
<rect x="402.7" y="304.7" class="st0" width="3.4" height="3.4"/>
<path class="st0" d="M402.7,304.7h3.4v0.9h-3.4V304.7z M402.7,307.2h3.4v0.9h-3.4V307.2z M402.7,305.5h0.9v1.6h-0.9V305.5z
	 M405.2,305.5h0.9v1.6h-0.9V305.5z"/>
<rect x="409.5" y="304.7" class="st0" width="3.4" height="3.4"/>
<path class="st0" d="M409.5,304.7h3.4v0.9h-3.4V304.7z M409.5,307.2h3.4v0.9h-3.4V307.2z M409.5,305.5h0.9v1.6h-0.9V305.5z
	 M412,305.5h0.9v1.6H412V305.5z"/>
<rect x="412.8" y="304.7" class="st0" width="3.4" height="3.4"/>
<path class="st0" d="M412.8,304.7h3.4v0.9h-3.4V304.7z M412.8,307.2h3.4v0.9h-3.4V307.2z M412.8,305.5h0.9v1.6h-0.9V305.5z
	 M415.3,305.5h0.9v1.6h-0.9V305.5z"/>
<rect x="422.9" y="304.7" class="st0" width="3.4" height="3.4"/>
<path class="st0" d="M422.9,304.7h3.4v0.9h-3.4V304.7z M422.9,307.2h3.4v0.9h-3.4V307.2z M422.9,305.5h0.9v1.6h-0.9V305.5z
	 M425.4,305.5h0.9v1.6h-0.9V305.5z"/>
<rect x="426.3" y="304.7" class="st0" width="3.4" height="3.4"/>
<path class="st0" d="M426.3,304.7h3.4v0.9h-3.4V304.7z M426.3,307.2h3.4v0.9h-3.4V307.2z M426.3,305.5h0.9v1.6h-0.9V305.5z
	 M428.8,305.5h0.9v1.6h-0.9V305.5z"/>
<rect x="429.7" y="304.7" class="st0" width="3.4" height="3.4"/>
<path class="st0" d="M429.7,304.7h3.4v0.9h-3.4V304.7z M429.7,307.2h3.4v0.9h-3.4V307.2z M429.7,305.5h0.9v1.6h-0.9V305.5z
	 M432.2,305.5h0.9v1.6h-0.9V305.5z"/>
<rect x="433" y="304.7" class="st0" width="3.4" height="3.4"/>
<path class="st0" d="M433,304.7h3.4v0.9H433V304.7z M433,307.2h3.4v0.9H433V307.2z M433,305.5h0.9v1.6H433V305.5z M435.5,305.5h0.9
	v1.6h-0.9V305.5z"/>
<rect x="436.4" y="304.7" class="st0" width="3.4" height="3.4"/>
<path class="st0" d="M436.4,304.7h3.4v0.9h-3.4V304.7z M436.4,307.2h3.4v0.9h-3.4V307.2z M436.4,305.5h0.9v1.6h-0.9V305.5z
	 M438.9,305.5h0.9v1.6h-0.9V305.5z"/>
<rect x="439.8" y="304.7" class="st0" width="3.4" height="3.4"/>
<path class="st0" d="M439.8,304.7h3.4v0.9h-3.4V304.7z M439.8,307.2h3.4v0.9h-3.4V307.2z M439.8,305.5h0.9v1.6h-0.9V305.5z
	 M442.3,305.5h0.9v1.6h-0.9V305.5z"/>
<rect x="443.1" y="304.7" class="st0" width="3.4" height="3.4"/>
<path class="st0" d="M443.1,304.7h3.4v0.9h-3.4V304.7z M443.1,307.2h3.4v0.9h-3.4V307.2z M443.1,305.5h0.9v1.6h-0.9V305.5z
	 M445.6,305.5h0.9v1.6h-0.9V305.5z"/>
<rect x="446.5" y="304.7" class="st0" width="3.4" height="3.4"/>
<path class="st0" d="M446.5,304.7h3.4v0.9h-3.4V304.7z M446.5,307.2h3.4v0.9h-3.4V307.2z M446.5,305.5h0.9v1.6h-0.9V305.5z
	 M449,305.5h0.9v1.6H449V305.5z"/>
<rect x="449.9" y="304.7" class="st0" width="3.4" height="3.4"/>
<path class="st0" d="M449.9,304.7h3.4v0.9h-3.4V304.7z M449.9,307.2h3.4v0.9h-3.4V307.2z M449.9,305.5h0.9v1.6h-0.9V305.5z
	 M452.4,305.5h0.9v1.6h-0.9V305.5z"/>
<rect x="453.2" y="304.7" class="st0" width="3.4" height="3.4"/>
<path class="st0" d="M453.2,304.7h3.4v0.9h-3.4V304.7z M453.2,307.2h3.4v0.9h-3.4V307.2z M453.2,305.5h0.9v1.6h-0.9V305.5z
	 M455.7,305.5h0.9v1.6h-0.9V305.5z"/>
<rect x="456.6" y="304.7" class="st0" width="3.4" height="3.4"/>
<path class="st0" d="M456.6,304.7h3.4v0.9h-3.4V304.7z M456.6,307.2h3.4v0.9h-3.4V307.2z M456.6,305.5h0.9v1.6h-0.9V305.5z
	 M459.1,305.5h0.9v1.6h-0.9V305.5z"/>
<rect x="460" y="304.7" class="st0" width="3.4" height="3.4"/>
<path class="st0" d="M460,304.7h3.4v0.9H460V304.7z M460,307.2h3.4v0.9H460V307.2z M460,305.5h0.9v1.6H460V305.5z M462.5,305.5h0.9
	v1.6h-0.9V305.5z"/>
<rect x="463.3" y="304.7" class="st0" width="3.4" height="3.4"/>
<path class="st0" d="M463.3,304.7h3.4v0.9h-3.4V304.7z M463.3,307.2h3.4v0.9h-3.4V307.2z M463.3,305.5h0.9v1.6h-0.9V305.5z
	 M465.8,305.5h0.9v1.6h-0.9V305.5z"/>
<rect x="382.5" y="308" class="st0" width="3.4" height="3.4"/>
<path class="st0" d="M382.5,308h3.4v0.9h-3.4V308z M382.5,310.5h3.4v0.9h-3.4V310.5z M382.5,308.9h0.9v1.6h-0.9V308.9z M385,308.9
	h0.9v1.6H385V308.9z"/>
<rect x="389.3" y="308" class="st0" width="3.4" height="3.4"/>
<path class="st0" d="M389.3,308h3.4v0.9h-3.4V308z M389.3,310.5h3.4v0.9h-3.4V310.5z M389.3,308.9h0.9v1.6h-0.9V308.9z M391.8,308.9
	h0.9v1.6h-0.9V308.9z"/>
<rect x="392.6" y="308" class="st0" width="3.4" height="3.4"/>
<path class="st0" d="M392.6,308h3.4v0.9h-3.4V308z M392.6,310.5h3.4v0.9h-3.4V310.5z M392.6,308.9h0.9v1.6h-0.9V308.9z M395.1,308.9
	h0.9v1.6h-0.9V308.9z"/>
<rect x="396" y="308" class="st0" width="3.4" height="3.4"/>
<path class="st0" d="M396,308h3.4v0.9H396V308z M396,310.5h3.4v0.9H396V310.5z M396,308.9h0.9v1.6H396V308.9z M398.5,308.9h0.9v1.6
	h-0.9V308.9z"/>
<rect x="402.7" y="308" class="st0" width="3.4" height="3.4"/>
<path class="st0" d="M402.7,308h3.4v0.9h-3.4V308z M402.7,310.5h3.4v0.9h-3.4V310.5z M402.7,308.9h0.9v1.6h-0.9V308.9z M405.2,308.9
	h0.9v1.6h-0.9V308.9z"/>
<rect x="409.5" y="308" class="st0" width="3.4" height="3.4"/>
<path class="st0" d="M409.5,308h3.4v0.9h-3.4V308z M409.5,310.5h3.4v0.9h-3.4V310.5z M409.5,308.9h0.9v1.6h-0.9V308.9z M412,308.9
	h0.9v1.6H412V308.9z"/>
<rect x="426.3" y="308" class="st0" width="3.4" height="3.4"/>
<path class="st0" d="M426.3,308h3.4v0.9h-3.4V308z M426.3,310.5h3.4v0.9h-3.4V310.5z M426.3,308.9h0.9v1.6h-0.9V308.9z M428.8,308.9
	h0.9v1.6h-0.9V308.9z"/>
<rect x="433" y="308" class="st0" width="3.4" height="3.4"/>
<path class="st0" d="M433,308h3.4v0.9H433V308z M433,310.5h3.4v0.9H433V310.5z M433,308.9h0.9v1.6H433V308.9z M435.5,308.9h0.9v1.6
	h-0.9V308.9z"/>
<rect x="436.4" y="308" class="st0" width="3.4" height="3.4"/>
<path class="st0" d="M436.4,308h3.4v0.9h-3.4V308z M436.4,310.5h3.4v0.9h-3.4V310.5z M436.4,308.9h0.9v1.6h-0.9V308.9z M438.9,308.9
	h0.9v1.6h-0.9V308.9z"/>
<rect x="439.8" y="308" class="st0" width="3.4" height="3.4"/>
<path class="st0" d="M439.8,308h3.4v0.9h-3.4V308z M439.8,310.5h3.4v0.9h-3.4V310.5z M439.8,308.9h0.9v1.6h-0.9V308.9z M442.3,308.9
	h0.9v1.6h-0.9V308.9z"/>
<rect x="443.1" y="308" class="st0" width="3.4" height="3.4"/>
<path class="st0" d="M443.1,308h3.4v0.9h-3.4V308z M443.1,310.5h3.4v0.9h-3.4V310.5z M443.1,308.9h0.9v1.6h-0.9V308.9z M445.6,308.9
	h0.9v1.6h-0.9V308.9z"/>
<rect x="449.9" y="308" class="st0" width="3.4" height="3.4"/>
<path class="st0" d="M449.9,308h3.4v0.9h-3.4V308z M449.9,310.5h3.4v0.9h-3.4V310.5z M449.9,308.9h0.9v1.6h-0.9V308.9z M452.4,308.9
	h0.9v1.6h-0.9V308.9z"/>
<rect x="460" y="308" class="st0" width="3.4" height="3.4"/>
<path class="st0" d="M460,308h3.4v0.9H460V308z M460,310.5h3.4v0.9H460V310.5z M460,308.9h0.9v1.6H460V308.9z M462.5,308.9h0.9v1.6
	h-0.9V308.9z"/>
<rect x="463.3" y="308" class="st0" width="3.4" height="3.4"/>
<path class="st0" d="M463.3,308h3.4v0.9h-3.4V308z M463.3,310.5h3.4v0.9h-3.4V310.5z M463.3,308.9h0.9v1.6h-0.9V308.9z M465.8,308.9
	h0.9v1.6h-0.9V308.9z"/>
<rect x="382.5" y="311.4" class="st0" width="3.4" height="3.4"/>
<path class="st0" d="M382.5,311.4h3.4v0.9h-3.4V311.4z M382.5,313.9h3.4v0.9h-3.4V313.9z M382.5,312.3h0.9v1.6h-0.9V312.3z
	 M385,312.3h0.9v1.6H385V312.3z"/>
<rect x="389.3" y="311.4" class="st0" width="3.4" height="3.4"/>
<path class="st0" d="M389.3,311.4h3.4v0.9h-3.4V311.4z M389.3,313.9h3.4v0.9h-3.4V313.9z M389.3,312.3h0.9v1.6h-0.9V312.3z
	 M391.8,312.3h0.9v1.6h-0.9V312.3z"/>
<rect x="392.6" y="311.4" class="st0" width="3.4" height="3.4"/>
<path class="st0" d="M392.6,311.4h3.4v0.9h-3.4V311.4z M392.6,313.9h3.4v0.9h-3.4V313.9z M392.6,312.3h0.9v1.6h-0.9V312.3z
	 M395.1,312.3h0.9v1.6h-0.9V312.3z"/>
<rect x="396" y="311.4" class="st0" width="3.4" height="3.4"/>
<path class="st0" d="M396,311.4h3.4v0.9H396V311.4z M396,313.9h3.4v0.9H396V313.9z M396,312.3h0.9v1.6H396V312.3z M398.5,312.3h0.9
	v1.6h-0.9V312.3z"/>
<rect x="402.7" y="311.4" class="st0" width="3.4" height="3.4"/>
<path class="st0" d="M402.7,311.4h3.4v0.9h-3.4V311.4z M402.7,313.9h3.4v0.9h-3.4V313.9z M402.7,312.3h0.9v1.6h-0.9V312.3z
	 M405.2,312.3h0.9v1.6h-0.9V312.3z"/>
<rect x="409.5" y="311.4" class="st0" width="3.4" height="3.4"/>
<path class="st0" d="M409.5,311.4h3.4v0.9h-3.4V311.4z M409.5,313.9h3.4v0.9h-3.4V313.9z M409.5,312.3h0.9v1.6h-0.9V312.3z
	 M412,312.3h0.9v1.6H412V312.3z"/>
<rect x="416.2" y="311.4" class="st0" width="3.4" height="3.4"/>
<path class="st0" d="M416.2,311.4h3.4v0.9h-3.4V311.4z M416.2,313.9h3.4v0.9h-3.4V313.9z M416.2,312.3h0.9v1.6h-0.9V312.3z
	 M418.7,312.3h0.9v1.6h-0.9V312.3z"/>
<rect x="419.6" y="311.4" class="st0" width="3.4" height="3.4"/>
<path class="st0" d="M419.6,311.4h3.4v0.9h-3.4V311.4z M419.6,313.9h3.4v0.9h-3.4V313.9z M419.6,312.3h0.9v1.6h-0.9V312.3z
	 M422.1,312.3h0.9v1.6h-0.9V312.3z"/>
<rect x="422.9" y="311.4" class="st0" width="3.4" height="3.4"/>
<path class="st0" d="M422.9,311.4h3.4v0.9h-3.4V311.4z M422.9,313.9h3.4v0.9h-3.4V313.9z M422.9,312.3h0.9v1.6h-0.9V312.3z
	 M425.4,312.3h0.9v1.6h-0.9V312.3z"/>
<rect x="429.7" y="311.4" class="st0" width="3.4" height="3.4"/>
<path class="st0" d="M429.7,311.4h3.4v0.9h-3.4V311.4z M429.7,313.9h3.4v0.9h-3.4V313.9z M429.7,312.3h0.9v1.6h-0.9V312.3z
	 M432.2,312.3h0.9v1.6h-0.9V312.3z"/>
<rect x="433" y="311.4" class="st0" width="3.4" height="3.4"/>
<path class="st0" d="M433,311.4h3.4v0.9H433V311.4z M433,313.9h3.4v0.9H433V313.9z M433,312.3h0.9v1.6H433V312.3z M435.5,312.3h0.9
	v1.6h-0.9V312.3z"/>
<rect x="439.8" y="311.4" class="st0" width="3.4" height="3.4"/>
<path class="st0" d="M439.8,311.4h3.4v0.9h-3.4V311.4z M439.8,313.9h3.4v0.9h-3.4V313.9z M439.8,312.3h0.9v1.6h-0.9V312.3z
	 M442.3,312.3h0.9v1.6h-0.9V312.3z"/>
<rect x="446.5" y="311.4" class="st0" width="3.4" height="3.4"/>
<path class="st0" d="M446.5,311.4h3.4v0.9h-3.4V311.4z M446.5,313.9h3.4v0.9h-3.4V313.9z M446.5,312.3h0.9v1.6h-0.9V312.3z
	 M449,312.3h0.9v1.6H449V312.3z"/>
<rect x="463.3" y="311.4" class="st0" width="3.4" height="3.4"/>
<path class="st0" d="M463.3,311.4h3.4v0.9h-3.4V311.4z M463.3,313.9h3.4v0.9h-3.4V313.9z M463.3,312.3h0.9v1.6h-0.9V312.3z
	 M465.8,312.3h0.9v1.6h-0.9V312.3z"/>
<rect x="382.5" y="314.8" class="st0" width="3.4" height="3.4"/>
<path class="st0" d="M382.5,314.8h3.4v0.9h-3.4V314.8z M382.5,317.3h3.4v0.9h-3.4V317.3z M382.5,315.6h0.9v1.6h-0.9V315.6z
	 M385,315.6h0.9v1.6H385V315.6z"/>
<rect x="402.7" y="314.8" class="st0" width="3.4" height="3.4"/>
<path class="st0" d="M402.7,314.8h3.4v0.9h-3.4V314.8z M402.7,317.3h3.4v0.9h-3.4V317.3z M402.7,315.6h0.9v1.6h-0.9V315.6z
	 M405.2,315.6h0.9v1.6h-0.9V315.6z"/>
<rect x="409.5" y="314.8" class="st0" width="3.4" height="3.4"/>
<path class="st0" d="M409.5,314.8h3.4v0.9h-3.4V314.8z M409.5,317.3h3.4v0.9h-3.4V317.3z M409.5,315.6h0.9v1.6h-0.9V315.6z
	 M412,315.6h0.9v1.6H412V315.6z"/>
<rect x="412.8" y="314.8" class="st0" width="3.4" height="3.4"/>
<path class="st0" d="M412.8,314.8h3.4v0.9h-3.4V314.8z M412.8,317.3h3.4v0.9h-3.4V317.3z M412.8,315.6h0.9v1.6h-0.9V315.6z
	 M415.3,315.6h0.9v1.6h-0.9V315.6z"/>
<rect x="419.6" y="314.8" class="st0" width="3.4" height="3.4"/>
<path class="st0" d="M419.6,314.8h3.4v0.9h-3.4V314.8z M419.6,317.3h3.4v0.9h-3.4V317.3z M419.6,315.6h0.9v1.6h-0.9V315.6z
	 M422.1,315.6h0.9v1.6h-0.9V315.6z"/>
<rect x="429.7" y="314.8" class="st0" width="3.4" height="3.4"/>
<path class="st0" d="M429.7,314.8h3.4v0.9h-3.4V314.8z M429.7,317.3h3.4v0.9h-3.4V317.3z M429.7,315.6h0.9v1.6h-0.9V315.6z
	 M432.2,315.6h0.9v1.6h-0.9V315.6z"/>
<rect x="433" y="314.8" class="st0" width="3.4" height="3.4"/>
<path class="st0" d="M433,314.8h3.4v0.9H433V314.8z M433,317.3h3.4v0.9H433V317.3z M433,315.6h0.9v1.6H433V315.6z M435.5,315.6h0.9
	v1.6h-0.9V315.6z"/>
<rect x="436.4" y="314.8" class="st0" width="3.4" height="3.4"/>
<path class="st0" d="M436.4,314.8h3.4v0.9h-3.4V314.8z M436.4,317.3h3.4v0.9h-3.4V317.3z M436.4,315.6h0.9v1.6h-0.9V315.6z
	 M438.9,315.6h0.9v1.6h-0.9V315.6z"/>
<rect x="463.3" y="314.8" class="st0" width="3.4" height="3.4"/>
<path class="st0" d="M463.3,314.8h3.4v0.9h-3.4V314.8z M463.3,317.3h3.4v0.9h-3.4V317.3z M463.3,315.6h0.9v1.6h-0.9V315.6z
	 M465.8,315.6h0.9v1.6h-0.9V315.6z"/>
<rect x="382.5" y="318.1" class="st0" width="3.4" height="3.4"/>
<path class="st0" d="M382.5,318.1h3.4v0.9h-3.4V318.1z M382.5,320.6h3.4v0.9h-3.4V320.6z M382.5,319h0.9v1.6h-0.9V319z M385,319h0.9
	v1.6H385V319z"/>
<rect x="385.9" y="318.1" class="st0" width="3.4" height="3.4"/>
<path class="st0" d="M385.9,318.1h3.4v0.9h-3.4V318.1z M385.9,320.6h3.4v0.9h-3.4V320.6z M385.9,319h0.9v1.6h-0.9V319z M388.4,319
	h0.9v1.6h-0.9V319z"/>
<rect x="389.3" y="318.1" class="st0" width="3.4" height="3.4"/>
<path class="st0" d="M389.3,318.1h3.4v0.9h-3.4V318.1z M389.3,320.6h3.4v0.9h-3.4V320.6z M389.3,319h0.9v1.6h-0.9V319z M391.8,319
	h0.9v1.6h-0.9V319z"/>
<rect x="392.6" y="318.1" class="st0" width="3.4" height="3.4"/>
<path class="st0" d="M392.6,318.1h3.4v0.9h-3.4V318.1z M392.6,320.6h3.4v0.9h-3.4V320.6z M392.6,319h0.9v1.6h-0.9V319z M395.1,319
	h0.9v1.6h-0.9V319z"/>
<rect x="396" y="318.1" class="st0" width="3.4" height="3.4"/>
<path class="st0" d="M396,318.1h3.4v0.9H396V318.1z M396,320.6h3.4v0.9H396V320.6z M396,319h0.9v1.6H396V319z M398.5,319h0.9v1.6
	h-0.9V319z"/>
<rect x="399.4" y="318.1" class="st0" width="3.4" height="3.4"/>
<path class="st0" d="M399.4,318.1h3.4v0.9h-3.4V318.1z M399.4,320.6h3.4v0.9h-3.4V320.6z M399.4,319h0.9v1.6h-0.9V319z M401.9,319
	h0.9v1.6h-0.9V319z"/>
<rect x="402.7" y="318.1" class="st0" width="3.4" height="3.4"/>
<path class="st0" d="M402.7,318.1h3.4v0.9h-3.4V318.1z M402.7,320.6h3.4v0.9h-3.4V320.6z M402.7,319h0.9v1.6h-0.9V319z M405.2,319
	h0.9v1.6h-0.9V319z"/>
<rect x="409.5" y="318.1" class="st0" width="3.4" height="3.4"/>
<path class="st0" d="M409.5,318.1h3.4v0.9h-3.4V318.1z M409.5,320.6h3.4v0.9h-3.4V320.6z M409.5,319h0.9v1.6h-0.9V319z M412,319h0.9
	v1.6H412V319z"/>
<rect x="412.8" y="318.1" class="st0" width="3.4" height="3.4"/>
<path class="st0" d="M412.8,318.1h3.4v0.9h-3.4V318.1z M412.8,320.6h3.4v0.9h-3.4V320.6z M412.8,319h0.9v1.6h-0.9V319z M415.3,319
	h0.9v1.6h-0.9V319z"/>
<rect x="419.6" y="318.1" class="st0" width="3.4" height="3.4"/>
<path class="st0" d="M419.6,318.1h3.4v0.9h-3.4V318.1z M419.6,320.6h3.4v0.9h-3.4V320.6z M419.6,319h0.9v1.6h-0.9V319z M422.1,319
	h0.9v1.6h-0.9V319z"/>
<rect x="422.9" y="318.1" class="st0" width="3.4" height="3.4"/>
<path class="st0" d="M422.9,318.1h3.4v0.9h-3.4V318.1z M422.9,320.6h3.4v0.9h-3.4V320.6z M422.9,319h0.9v1.6h-0.9V319z M425.4,319
	h0.9v1.6h-0.9V319z"/>
<rect x="446.5" y="318.1" class="st0" width="3.4" height="3.4"/>
<path class="st0" d="M446.5,318.1h3.4v0.9h-3.4V318.1z M446.5,320.6h3.4v0.9h-3.4V320.6z M446.5,319h0.9v1.6h-0.9V319z M449,319h0.9
	v1.6H449V319z"/>
<rect x="449.9" y="318.1" class="st0" width="3.4" height="3.4"/>
<path class="st0" d="M449.9,318.1h3.4v0.9h-3.4V318.1z M449.9,320.6h3.4v0.9h-3.4V320.6z M449.9,319h0.9v1.6h-0.9V319z M452.4,319
	h0.9v1.6h-0.9V319z"/>
<rect x="453.2" y="318.1" class="st0" width="3.4" height="3.4"/>
<path class="st0" d="M453.2,318.1h3.4v0.9h-3.4V318.1z M453.2,320.6h3.4v0.9h-3.4V320.6z M453.2,319h0.9v1.6h-0.9V319z M455.7,319
	h0.9v1.6h-0.9V319z"/>
<rect x="456.6" y="318.1" class="st0" width="3.4" height="3.4"/>
<path class="st0" d="M456.6,318.1h3.4v0.9h-3.4V318.1z M456.6,320.6h3.4v0.9h-3.4V320.6z M456.6,319h0.9v1.6h-0.9V319z M459.1,319
	h0.9v1.6h-0.9V319z"/>
<rect x="460" y="318.1" class="st0" width="3.4" height="3.4"/>
<path class="st0" d="M460,318.1h3.4v0.9H460V318.1z M460,320.6h3.4v0.9H460V320.6z M460,319h0.9v1.6H460V319z M462.5,319h0.9v1.6
	h-0.9V319z"/>
<rect x="463.3" y="318.1" class="st0" width="3.4" height="3.4"/>
<path class="st0" d="M463.3,318.1h3.4v0.9h-3.4V318.1z M463.3,320.6h3.4v0.9h-3.4V320.6z M463.3,319h0.9v1.6h-0.9V319z M465.8,319
	h0.9v1.6h-0.9V319z"/>
</svg>
